<?xml version="1.0" encoding="UTF-8" standalone="no"?>
<!-- Created with Inkscape (http://www.inkscape.org/) -->

<svg
   width="195.03339mm"
   height="98.152397mm"
   viewBox="0 0 195.03339 98.152397"
   version="1.1"
   id="svg1"
   inkscape:version="1.4 (e7c3feb100, 2024-10-09)"
   sodipodi:docname="RISC-V-assembly-safe.svg"
   xmlns:inkscape="http://www.inkscape.org/namespaces/inkscape"
   xmlns:sodipodi="http://sodipodi.sourceforge.net/DTD/sodipodi-0.dtd"
   xmlns:xlink="http://www.w3.org/1999/xlink"
   xmlns="http://www.w3.org/2000/svg"
   xmlns:svg="http://www.w3.org/2000/svg">
  <sodipodi:namedview
     id="namedview1"
     pagecolor="#ffffff"
     bordercolor="#000000"
     borderopacity="0.25"
     inkscape:showpageshadow="2"
     inkscape:pageopacity="0.0"
     inkscape:pagecheckerboard="0"
     inkscape:deskcolor="#d1d1d1"
     inkscape:document-units="mm"
     inkscape:zoom="2.0810325"
     inkscape:cx="302.97461"
     inkscape:cy="116.76896"
     inkscape:window-width="2560"
     inkscape:window-height="1371"
     inkscape:window-x="2560"
     inkscape:window-y="32"
     inkscape:window-maximized="1"
     inkscape:current-layer="layer1" />
  <defs
     id="defs1">
    <linearGradient
       id="swatch4"
       inkscape:swatch="solid">
      <stop
         style="stop-color:#ffffff;stop-opacity:1;"
         offset="0"
         id="stop4" />
    </linearGradient>
    <linearGradient
       inkscape:collect="always"
       xlink:href="#swatch4"
       id="linearGradient2"
       gradientUnits="userSpaceOnUse"
       gradientTransform="translate(59.47804,14.365427)"
       x1="2.6501331"
       y1="145.4774"
       x2="69.782387"
       y2="145.4774" />
  </defs>
  <g
     inkscape:label="Layer 1"
     inkscape:groupmode="layer"
     id="layer1"
     transform="translate(-8.6455479,-75.5214)">
    <path
       id="rect1"
       style="fill:#00002c;stroke-width:0.3"
       transform="scale(1,-1)"
       d="M 13.159036,-173.6738 H 200.56399 c 2.11308,0 3.81422,1.70114 3.81422,3.81422 v 90.523963 c 0,2.113076 -1.70114,3.814217 -3.81422,3.814217 H 13.159036 c -2.113076,0 -3.814216,-1.701141 -3.814216,-3.814217 v -90.523963 c 0,-2.11308 1.70114,-3.81422 3.814216,-3.81422 z" />
    <path
       d="m 51.264756,141.34882 h 0.380338 v 2.31511 h -0.380338 z m 0,-0.90123 h 0.380338 v 0.48162 h -0.380338 z m 2.978627,1.34565 q 0.142627,-0.25631 0.341064,-0.37827 0.198437,-0.12196 0.467155,-0.12196 0.361734,0 0.558105,0.25425 0.19637,0.25218 0.19637,0.71934 v 1.39733 H 55.423672 V 142.279 q 0,-0.3328 -0.117823,-0.49403 -0.117822,-0.16123 -0.359667,-0.16123 -0.295589,0 -0.467155,0.19637 -0.171565,0.19637 -0.171565,0.53537 v 1.30845 H 53.925056 V 142.279 q 0,-0.33487 -0.117822,-0.49403 -0.117822,-0.16123 -0.363802,-0.16123 -0.291454,0 -0.46302,0.19844 -0.171566,0.19637 -0.171566,0.5333 v 1.30845 h -0.382405 v -2.31511 h 0.382405 v 0.35967 q 0.130225,-0.21291 0.312126,-0.31419 0.181901,-0.10129 0.432014,-0.10129 0.252181,0 0.427881,0.12816 0.177767,0.12816 0.262516,0.37207 z m 4.123776,0 q 0.142627,-0.25631 0.341064,-0.37827 0.198437,-0.12196 0.467155,-0.12196 0.361734,0 0.558105,0.25425 0.19637,0.25218 0.19637,0.71934 v 1.39733 H 59.547448 V 142.279 q 0,-0.3328 -0.117823,-0.49403 -0.117822,-0.16123 -0.359667,-0.16123 -0.295589,0 -0.467155,0.19637 -0.171565,0.19637 -0.171565,0.53537 v 1.30845 H 58.048832 V 142.279 q 0,-0.33487 -0.117822,-0.49403 -0.117822,-0.16123 -0.363802,-0.16123 -0.291454,0 -0.46302,0.19844 -0.171566,0.19637 -0.171566,0.5333 v 1.30845 h -0.382405 v -2.31511 h 0.382405 v 0.35967 q 0.130225,-0.21291 0.312126,-0.31419 0.181901,-0.10129 0.432014,-0.10129 0.252181,0 0.427881,0.12816 0.177767,0.12816 0.262516,0.37207 z"
       id="text9-8-7-8-8"
       style="font-size:4.23333px;font-family:Sans;-inkscape-font-specification:'Sans, @wght=400';font-variation-settings:'wght' 400;text-align:center;text-anchor:middle;fill:#ffffff"
       aria-label="imm" />
    <path
       id="rect9-0-9-7-6"
       style="font-variation-settings:'wght' 400;fill:#ffffff;stroke-width:1.42466"
       d="m 25.547369,139.15517 h 60.099865 c 0.228916,0 0.413206,0.18429 0.413206,0.4132 0,0.22892 -0.18429,0.41321 -0.413206,0.41321 H 25.547369 c -0.228916,0 -0.413206,-0.18429 -0.413206,-0.41321 0,-0.22891 0.18429,-0.4132 0.413206,-0.4132 z" />
    <path
       d="m 94.650012,141.46443 v 0.35967 q -0.161231,-0.0827 -0.334863,-0.12403 -0.173633,-0.0413 -0.359668,-0.0413 -0.283187,0 -0.425813,0.0868 -0.14056,0.0868 -0.14056,0.26045 0,0.13229 0.101286,0.20877 0.101285,0.0744 0.407209,0.14263 l 0.130225,0.0289 q 0.405143,0.0868 0.574641,0.24598 0.171566,0.15709 0.171566,0.44028 0,0.32246 -0.256315,0.51056 -0.254248,0.1881 -0.700732,0.1881 -0.186035,0 -0.388606,-0.0372 -0.200505,-0.0351 -0.423747,-0.10749 v -0.39274 q 0.21084,0.10955 0.415479,0.16536 0.204638,0.0538 0.405143,0.0538 0.268717,0 0.413411,-0.091 0.144694,-0.093 0.144694,-0.26045 0,-0.15503 -0.10542,-0.23771 -0.103353,-0.0827 -0.45682,-0.15917 l -0.132291,-0.031 q -0.353467,-0.0744 -0.510563,-0.22738 -0.157096,-0.15503 -0.157096,-0.42375 0,-0.32659 0.23151,-0.50436 0.23151,-0.17776 0.657324,-0.17776 0.210839,0 0.396874,0.031 0.186035,0.031 0.343132,0.093 z m 2.071189,0.28732 q -0.06408,-0.0372 -0.140559,-0.0537 -0.07441,-0.0186 -0.165365,-0.0186 -0.322461,0 -0.496093,0.21084 -0.171566,0.20878 -0.171566,0.60152 v 1.21956 h -0.382405 v -2.3151 h 0.382405 v 0.35966 q 0.119889,-0.21084 0.312126,-0.31212 0.192236,-0.10335 0.467154,-0.10335 0.03927,0 0.08682,0.006 0.04754,0.004 0.10542,0.0145 z m 1.971971,-0.26665 v 0.35553 q -0.16123,-0.0889 -0.324527,-0.13229 -0.161231,-0.0455 -0.326595,-0.0455 -0.370003,0 -0.574642,0.23564 -0.204638,0.23358 -0.204638,0.65732 0,0.42375 0.204638,0.6594 0.204639,0.23357 0.574642,0.23357 0.165364,0 0.326595,-0.0434 0.163297,-0.0455 0.324527,-0.13435 v 0.3514 q -0.159163,0.0744 -0.330728,0.11162 -0.169499,0.0372 -0.361735,0.0372 -0.522965,0 -0.830957,-0.32866 -0.307991,-0.32866 -0.307991,-0.88677 0,-0.56637 0.310059,-0.8909 0.312125,-0.32452 0.853693,-0.32452 0.1757,0 0.343132,0.0372 0.167431,0.0351 0.324527,0.10749 z"
       id="text9-8-7-8"
       style="font-size:4.23333px;font-family:Sans;-inkscape-font-specification:'Sans, @wght=400';font-variation-settings:'wght' 400;text-align:center;text-anchor:middle;fill:#ffffff"
       aria-label="src" />
    <path
       d="m 109.18924,140.41762 v 0.31626 h -0.3638 q -0.20464,0 -0.28526,0.0827 -0.0786,0.0827 -0.0786,0.29766 v 0.20463 h 0.62632 v 0.29559 h -0.62632 v 2.01952 h -0.3824 v -2.01952 h -0.3638 v -0.29559 h 0.3638 v -0.16123 q 0,-0.38654 0.17983,-0.56223 0.17984,-0.17777 0.57051,-0.17777 z m 0.27905,2.3027 v -1.40147 h 0.38034 v 1.387 q 0,0.32866 0.12816,0.49403 0.12815,0.16329 0.38447,0.16329 0.30799,0 0.48576,-0.19637 0.17983,-0.19637 0.17983,-0.53537 v -1.31258 h 0.38034 v 2.31511 h -0.38034 v -0.35554 q -0.13849,0.21084 -0.32246,0.3142 -0.1819,0.10128 -0.42375,0.10128 -0.39894,0 -0.60564,-0.24805 -0.20671,-0.24804 -0.20671,-0.72553 z m 0.95705,-1.45728 z m 3.68969,0.97359 v 1.39733 h -0.38034 v -1.38493 q 0,-0.32866 -0.12816,-0.49196 -0.12815,-0.1633 -0.38447,-0.1633 -0.30799,0 -0.48576,0.19637 -0.17776,0.19637 -0.17776,0.53537 v 1.30845 h -0.38241 v -2.31511 h 0.38241 v 0.35967 q 0.13642,-0.20877 0.32039,-0.31212 0.18604,-0.10336 0.42788,-0.10336 0.39894,0 0.60358,0.24805 0.20464,0.24598 0.20464,0.72554 z m 2.42466,-0.82889 v 0.35553 q -0.16123,-0.0889 -0.32453,-0.13229 -0.16123,-0.0455 -0.3266,-0.0455 -0.37,0 -0.57464,0.23565 -0.20464,0.23358 -0.20464,0.65732 0,0.42375 0.20464,0.65939 0.20464,0.23358 0.57464,0.23358 0.16537,0 0.3266,-0.0434 0.1633,-0.0455 0.32453,-0.13436 v 0.3514 q -0.15917,0.0744 -0.33073,0.11162 -0.1695,0.0372 -0.36174,0.0372 -0.52296,0 -0.83095,-0.32866 -0.30799,-0.32866 -0.30799,-0.88677 0,-0.56637 0.31005,-0.8909 0.31213,-0.32453 0.8537,-0.32453 0.1757,0 0.34313,0.0372 0.16743,0.0351 0.32453,0.10749 z m 1.03766,-0.74621 v 0.65732 h 0.78341 v 0.29559 h -0.78341 v 1.25677 q 0,0.28319 0.0765,0.36381 0.0786,0.0806 0.31626,0.0806 h 0.39067 v 0.31833 h -0.39067 q -0.44028,0 -0.60772,-0.1633 -0.16743,-0.16536 -0.16743,-0.59945 v -1.25677 h -0.27905 v -0.29559 h 0.27905 v -0.65732 z m 2.60242,1.30845 q 0.29972,0.0641 0.46716,0.26665 0.16949,0.20257 0.16949,0.50022 0,0.45682 -0.31419,0.70694 -0.31419,0.25011 -0.89297,0.25011 -0.1943,0 -0.40101,-0.0393 -0.20463,-0.0372 -0.42374,-0.11369 v -0.40308 q 0.17363,0.10129 0.38034,0.15297 0.2067,0.0517 0.43201,0.0517 0.39274,0 0.59738,-0.15503 0.20671,-0.15503 0.20671,-0.45062 0,-0.27285 -0.19224,-0.42581 -0.19017,-0.15503 -0.53123,-0.15503 h -0.35967 v -0.34313 h 0.3762 q 0.30799,0 0.47129,-0.12196 0.1633,-0.12402 0.1633,-0.35553 0,-0.23771 -0.1695,-0.3638 -0.16743,-0.12816 -0.48162,-0.12816 -0.17157,0 -0.36794,0.0372 -0.19637,0.0372 -0.43201,0.11575 v -0.37207 q 0.23771,-0.0661 0.44441,-0.0992 0.20878,-0.0331 0.39274,-0.0331 0.47543,0 0.75241,0.21704 0.27699,0.21498 0.27699,0.58291 0,0.25632 -0.14676,0.43408 -0.14676,0.1757 -0.41755,0.24392 z"
       id="text9-8-7"
       style="font-size:4.23333px;font-family:Sans;-inkscape-font-specification:'Sans, @wght=400';font-variation-settings:'wght' 400;text-align:center;text-anchor:middle;fill:#ffffff"
       aria-label="funct3" />
    <path
       d="m 131.23086,141.67025 v -1.25263 h 0.38034 v 3.21634 h -0.38034 v -0.34727 q -0.11989,0.20671 -0.30386,0.30799 -0.1819,0.0992 -0.43822,0.0992 -0.41961,0 -0.68419,-0.33486 -0.26252,-0.33486 -0.26252,-0.88057 0,-0.5457 0.26252,-0.88056 0.26458,-0.33487 0.68419,-0.33487 0.25632,0 0.43822,0.10129 0.18397,0.0992 0.30386,0.30592 z m -1.29605,0.80822 q 0,0.41962 0.17157,0.65939 0.17363,0.23771 0.47542,0.23771 0.30179,0 0.47542,-0.23771 0.17364,-0.23977 0.17364,-0.65939 0,-0.41961 -0.17364,-0.65732 -0.17363,-0.23978 -0.47542,-0.23978 -0.30179,0 -0.47542,0.23978 -0.17157,0.23771 -0.17157,0.65732 z m 4.44004,-0.0971 v 0.18604 h -1.74873 q 0.0248,0.39274 0.23564,0.59944 0.21291,0.20464 0.59118,0.20464 0.21911,0 0.42375,-0.0537 0.2067,-0.0538 0.40928,-0.16123 v 0.35966 q -0.20464,0.0868 -0.41962,0.1323 -0.21497,0.0455 -0.43615,0.0455 -0.55397,0 -0.87849,-0.32246 -0.32246,-0.32246 -0.32246,-0.8723 0,-0.56844 0.30592,-0.90123 0.30799,-0.33487 0.82889,-0.33487 0.46715,0 0.73794,0.30179 0.27285,0.29973 0.27285,0.81649 z m -0.38034,-0.11162 q -0.004,-0.31213 -0.1757,-0.49816 -0.1695,-0.18604 -0.45062,-0.18604 -0.31832,0 -0.51056,0.17984 -0.19017,0.17983 -0.21911,0.50643 z m 2.48047,-0.88263 v 0.35967 q -0.16123,-0.0827 -0.33487,-0.12403 -0.17363,-0.0413 -0.35966,-0.0413 -0.28319,0 -0.42582,0.0868 -0.14056,0.0868 -0.14056,0.26045 0,0.13229 0.10129,0.20877 0.10129,0.0744 0.40721,0.14263 l 0.13022,0.0289 q 0.40515,0.0868 0.57465,0.24598 0.17156,0.1571 0.17156,0.44029 0,0.32246 -0.25631,0.51056 -0.25425,0.1881 -0.70074,0.1881 -0.18603,0 -0.3886,-0.0372 -0.20051,-0.0351 -0.42375,-0.10748 v -0.39274 q 0.21084,0.10955 0.41548,0.16536 0.20464,0.0537 0.40514,0.0537 0.26872,0 0.41341,-0.091 0.1447,-0.093 0.1447,-0.26044 0,-0.15503 -0.10542,-0.23772 -0.10336,-0.0827 -0.45682,-0.15916 l -0.13229,-0.031 q -0.35347,-0.0744 -0.51057,-0.22738 -0.15709,-0.15503 -0.15709,-0.42375 0,-0.32659 0.23151,-0.50436 0.23151,-0.17777 0.65732,-0.17777 0.21084,0 0.39688,0.031 0.18603,0.031 0.34313,0.093 z m 1.10587,-0.72554 v 0.65732 h 0.78342 v 0.29559 h -0.78342 v 1.25677 q 0,0.28319 0.0765,0.36381 0.0786,0.0806 0.31626,0.0806 h 0.39068 v 0.31833 h -0.39068 q -0.44028,0 -0.60771,-0.1633 -0.16743,-0.16536 -0.16743,-0.59945 v -1.25677 h -0.27906 v -0.29559 h 0.27906 v -0.65732 z"
       id="text9-8"
       style="font-size:4.23333px;font-family:Sans;-inkscape-font-specification:'Sans, @wght=400';font-variation-settings:'wght' 400;text-align:center;text-anchor:middle;fill:#ffffff"
       aria-label="dest" />
    <path
       style="font-size:4.23333px;font-family:Sans;-inkscape-font-specification:'Sans, @wght=400';font-variation-settings:'wght' 400;text-align:center;text-anchor:middle;fill:#ffffff"
       d="m 128.48492,109.69169 h 0.38034 v 2.3151 h -0.38034 z m 0,-0.90124 h 0.38034 v 0.48163 h -0.38034 z m 2.97863,1.34565 q 0.14263,-0.25631 0.34107,-0.37827 0.19843,-0.12195 0.46715,-0.12195 0.36174,0 0.55811,0.25425 0.19637,0.25218 0.19637,0.71933 v 1.39733 h -0.38241 v -1.38493 q 0,-0.33279 -0.11782,-0.49402 -0.11782,-0.16123 -0.35967,-0.16123 -0.29559,0 -0.46715,0.19637 -0.17157,0.19637 -0.17157,0.53536 v 1.30845 h -0.3824 v -1.38493 q 0,-0.33486 -0.11783,-0.49402 -0.11782,-0.16123 -0.3638,-0.16123 -0.29145,0 -0.46302,0.19843 -0.17156,0.19637 -0.17156,0.5333 v 1.30845 h -0.38241 v -2.3151 h 0.38241 v 0.35967 q 0.13022,-0.21291 0.31212,-0.3142 0.1819,-0.10128 0.43202,-0.10128 0.25218,0 0.42788,0.12815 0.17776,0.12816 0.26251,0.37207 z m 4.12378,0 q 0.14262,-0.25631 0.34106,-0.37827 0.19844,-0.12195 0.46716,-0.12195 0.36173,0 0.5581,0.25425 0.19637,0.25218 0.19637,0.71933 v 1.39733 h -0.3824 v -1.38493 q 0,-0.33279 -0.11783,-0.49402 -0.11782,-0.16123 -0.35966,-0.16123 -0.29559,0 -0.46716,0.19637 -0.17156,0.19637 -0.17156,0.53536 v 1.30845 H 135.269 v -1.38493 q 0,-0.33486 -0.11782,-0.49402 -0.11782,-0.16123 -0.3638,-0.16123 -0.29146,0 -0.46302,0.19843 -0.17157,0.19637 -0.17157,0.5333 v 1.30845 h -0.3824 v -2.3151 h 0.3824 v 0.35967 q 0.13023,-0.21291 0.31213,-0.3142 0.1819,-0.10128 0.43201,-0.10128 0.25218,0 0.42788,0.12815 0.17777,0.12816 0.26252,0.37207 z"
       id="text8-7"
       aria-label="imm" />
    <text
       xml:space="preserve"
       style="font-size:101.487px;font-family:Unbounded;-inkscape-font-specification:'Unbounded, Normal';text-align:center;writing-mode:lr-tb;direction:ltr;text-anchor:middle;fill:#00002c;fill-opacity:1;stroke-width:0.3"
       x="35.061722"
       y="135.03258"
       id="text1"><tspan
         sodipodi:role="line"
         id="tspan1"
         style="font-style:normal;font-variant:normal;font-weight:normal;font-stretch:normal;font-size:6.35px;font-family:Outfit;-inkscape-font-specification:'Outfit, Normal';font-variant-ligatures:normal;font-variant-caps:normal;font-variant-numeric:normal;font-variant-east-asian:normal;fill:#ffffff;fill-opacity:1;stroke-width:0.3"
         x="35.061722"
         y="135.03258" /></text>
    <text
       xml:space="preserve"
       style="font-style:normal;font-variant:normal;font-weight:normal;font-stretch:normal;font-size:6.35px;font-family:Outfit;-inkscape-font-specification:'Outfit, Normal';font-variant-ligatures:normal;font-variant-caps:normal;font-variant-numeric:normal;font-variant-east-asian:normal;text-align:center;writing-mode:lr-tb;direction:ltr;text-anchor:middle;fill:#ffffff;fill-opacity:1;stroke-width:0.3"
       x="17.980368"
       y="83.608719"
       id="text2"><tspan
         sodipodi:role="line"
         id="tspan2"
         style="stroke-width:0.3"
         x="17.980368"
         y="83.608719" /></text>
    <path
       d="m 43.051486,83.482366 v -0.973667 h 1.278467 q 0.397934,0 0.6096,-0.2032 0.220134,-0.2032 0.220134,-0.5588 0,-0.321734 -0.211667,-0.533401 -0.211667,-0.220133 -0.618067,-0.220133 h -1.278467 v -1.024467 h 1.430867 q 0.592667,0 1.041401,0.2286 0.448733,0.2286 0.694267,0.626534 0.254,0.389466 0.254,0.905933 0,0.524934 -0.254,0.922867 -0.254001,0.389467 -0.711201,0.609601 -0.448733,0.220133 -1.0668,0.220133 z m -0.999067,2.463801 v -5.977469 h 1.312334 v 5.977469 z m 3.251201,0 -1.871134,-2.573868 1.202267,-0.3302 2.226735,2.904068 z m 2.133598,0 v -5.977469 h 1.312334 v 5.977469 z m 4.140206,0.09313 q -0.736601,0 -1.270001,-0.237066 -0.524933,-0.245534 -0.9652,-0.736601 l 0.855133,-0.846667 q 0.287867,0.338667 0.635001,0.524934 0.347133,0.1778 0.821267,0.1778 0.423333,0 0.6604,-0.1524 0.237067,-0.160867 0.237067,-0.440267 0,-0.245533 -0.1524,-0.397933 -0.1524,-0.152401 -0.406401,-0.262467 -0.245533,-0.118534 -0.550333,-0.211667 -0.296334,-0.1016 -0.592667,-0.2286 -0.296333,-0.135467 -0.550334,-0.3302 -0.245533,-0.2032 -0.397933,-0.499534 -0.1524,-0.3048 -0.1524,-0.762 0,-0.550334 0.262467,-0.9398 0.270933,-0.397934 0.745067,-0.609601 0.474133,-0.211666 1.083733,-0.211666 0.626534,0 1.143001,0.2286 0.516467,0.220133 0.855133,0.592667 l -0.855133,0.855133 q -0.270934,-0.2794 -0.550334,-0.414867 -0.270933,-0.135466 -0.618067,-0.135466 -0.3556,0 -0.5588,0.135466 -0.2032,0.127 -0.2032,0.381001 0,0.220133 0.1524,0.364066 0.1524,0.143934 0.397934,0.245534 0.254,0.1016 0.550333,0.2032 0.3048,0.1016 0.601134,0.237067 0.296333,0.135466 0.541867,0.347133 0.254,0.2032 0.4064,0.516467 0.1524,0.313267 0.1524,0.7874 0,0.855134 -0.6096,1.337734 -0.601134,0.4826 -1.667934,0.4826 z m 6.002867,0 q -0.668867,0 -1.236134,-0.2286 -0.567266,-0.237066 -0.999067,-0.6604 -0.423333,-0.423333 -0.6604,-0.982134 -0.237067,-0.5588 -0.237067,-1.210734 0,-0.6604 0.237067,-1.2192 0.237067,-0.5588 0.6604,-0.973667 0.423334,-0.414867 0.990601,-0.651934 0.567267,-0.237066 1.236134,-0.237066 0.7112,0 1.261533,0.2286 0.558801,0.2286 0.973668,0.626533 l -0.880534,0.889001 q -0.237067,-0.254 -0.575734,-0.397934 -0.3302,-0.143933 -0.778933,-0.143933 -0.389467,0 -0.719667,0.135466 -0.321734,0.127 -0.558801,0.381001 -0.237066,0.245533 -0.372533,0.592666 -0.127,0.347134 -0.127,0.770467 0,0.423334 0.127,0.770467 0.135467,0.347134 0.372533,0.601134 0.237067,0.245533 0.558801,0.381 0.3302,0.135467 0.719667,0.135467 0.465666,0 0.804333,-0.143934 0.347134,-0.143933 0.584201,-0.4064 l 0.889,0.889001 q -0.4318,0.397933 -0.990601,0.626533 -0.550333,0.2286 -1.278467,0.2286 z m 2.7669,-1.693334 v -1.1176 h 2.997201 v 1.1176 z m 5.38227,1.600201 -2.302934,-5.977469 h 1.405467 l 1.761068,4.834469 h -0.575734 l 1.778001,-4.834469 h 1.388534 l -2.328335,5.977469 z m 5.096936,0 2.370668,-5.977469 h 1.176867 l 2.353734,5.977469 h -1.388534 l -1.794934,-4.953002 h 0.474134 l -1.828801,4.953002 z m 1.346201,-1.083734 v -1.0668 h 3.242734 v 1.0668 z m 6.629397,1.185334 q -0.364067,0 -0.719667,-0.09313 -0.347133,-0.09313 -0.643467,-0.262467 -0.296333,-0.169334 -0.508,-0.4064 l 0.728133,-0.736601 q 0.211667,0.228601 0.491067,0.347134 0.2794,0.118533 0.609601,0.118533 0.2286,0 0.347133,-0.06773 0.127,-0.06773 0.127,-0.194733 0,-0.152401 -0.143933,-0.228601 -0.143934,-0.08467 -0.381,-0.143933 -0.228601,-0.06773 -0.482601,-0.143933 -0.254,-0.0762 -0.4826,-0.211667 -0.2286,-0.135467 -0.372533,-0.372534 -0.143934,-0.237066 -0.143934,-0.618067 0,-0.389466 0.194734,-0.6858 0.2032,-0.296333 0.575733,-0.4572 0.372534,-0.169333 0.872067,-0.169333 0.524934,0 0.965201,0.1778 0.440267,0.1778 0.719667,0.541867 l -0.728134,0.7366 q -0.194733,-0.2286 -0.440267,-0.321734 -0.237067,-0.1016 -0.474133,-0.1016 -0.220134,0 -0.3302,0.06773 -0.110067,0.06773 -0.110067,0.186266 0,0.135467 0.143933,0.211667 0.143934,0.0762 0.372534,0.135467 0.2286,0.05927 0.4826,0.143933 0.254,0.0762 0.4826,0.2286 0.2286,0.143934 0.372534,0.389467 0.143933,0.237067 0.143933,0.618067 0,0.601134 -0.448734,0.956734 -0.448733,0.3556 -1.2192,0.3556 z m 3.860794,0 q -0.364067,0 -0.719667,-0.09313 -0.347133,-0.09313 -0.643467,-0.262467 -0.296333,-0.169334 -0.508,-0.4064 l 0.728134,-0.736601 q 0.211666,0.228601 0.491066,0.347134 0.279401,0.118533 0.609601,0.118533 0.2286,0 0.347133,-0.06773 0.127,-0.06773 0.127,-0.194733 0,-0.152401 -0.143933,-0.228601 -0.143934,-0.08467 -0.381,-0.143933 -0.2286,-0.06773 -0.482601,-0.143933 -0.254,-0.0762 -0.4826,-0.211667 -0.2286,-0.135467 -0.372533,-0.372534 -0.143934,-0.237066 -0.143934,-0.618067 0,-0.389466 0.194734,-0.6858 0.2032,-0.296333 0.575733,-0.4572 0.372534,-0.169333 0.872067,-0.169333 0.524934,0 0.965201,0.1778 0.440267,0.1778 0.719667,0.541867 l -0.728134,0.7366 q -0.194733,-0.2286 -0.440267,-0.321734 -0.237067,-0.1016 -0.474133,-0.1016 -0.220134,0 -0.3302,0.06773 -0.110067,0.06773 -0.110067,0.186266 0,0.135467 0.143933,0.211667 0.143934,0.0762 0.372534,0.135467 0.2286,0.05927 0.4826,0.143933 0.254,0.0762 0.4826,0.2286 0.2286,0.143934 0.372534,0.389467 0.143933,0.237067 0.143933,0.618067 0,0.601134 -0.448734,0.956734 -0.448733,0.3556 -1.2192,0.3556 z m 4.394198,-0.0085 q -0.668867,0 -1.185334,-0.270933 -0.516467,-0.2794 -0.8128,-0.762 -0.296333,-0.491067 -0.296333,-1.117601 0,-0.618067 0.287866,-1.100667 0.296334,-0.4826 0.795867,-0.762 0.499534,-0.287867 1.117601,-0.287867 0.6096,0 1.075267,0.270933 0.465667,0.262467 0.728133,0.728134 0.270934,0.465667 0.270934,1.058334 0,0.118533 -0.01693,0.237067 -0.0085,0.118533 -0.04233,0.2794 l -3.539068,0.0085 v -0.880533 l 2.988735,-0.01693 -0.541867,0.381 q -0.0085,-0.364066 -0.118534,-0.592666 -0.1016,-0.237067 -0.3048,-0.355601 -0.194733,-0.127 -0.491067,-0.127 -0.3048,0 -0.5334,0.143934 -0.2286,0.135466 -0.347133,0.389467 -0.118534,0.254 -0.118534,0.618067 0,0.364066 0.127,0.626533 0.127,0.262467 0.372534,0.4064 0.245533,0.135467 0.5842,0.135467 0.3048,0 0.550334,-0.1016 0.245533,-0.110067 0.4318,-0.321734 l 0.702733,0.702734 q -0.3048,0.3556 -0.7366,0.5334 -0.4318,0.1778 -0.948267,0.1778 z m 2.607741,-0.09313 v -4.114802 h 1.278467 v 4.114802 z m 2.641601,0 v -2.404534 q 0,-0.313267 -0.194733,-0.491067 -0.194734,-0.1778 -0.4826,-0.1778 -0.194734,0 -0.355601,0.08467 -0.1524,0.0762 -0.245533,0.228601 -0.08467,0.143933 -0.08467,0.3556 l -0.491067,-0.220134 q 0,-0.4826 0.211667,-0.829733 0.211667,-0.355601 0.575734,-0.550334 0.364067,-0.194733 0.821267,-0.194733 0.423333,0 0.770467,0.194733 0.347133,0.194733 0.550333,0.550334 0.2032,0.347133 0.2032,0.829733 v 2.624668 z m 2.633135,0 v -2.404534 q 0,-0.313267 -0.194734,-0.491067 -0.194733,-0.1778 -0.4826,-0.1778 -0.186267,0 -0.347133,0.08467 -0.160867,0.0762 -0.245534,0.228601 -0.08467,0.143933 -0.08467,0.3556 l -0.745067,-0.1016 q 0.0254,-0.524934 0.254001,-0.897467 0.237066,-0.381001 0.618066,-0.584201 0.389467,-0.211666 0.863601,-0.211666 0.474133,0 0.8382,0.2032 0.372534,0.194733 0.5842,0.567267 0.220134,0.364066 0.220134,0.880533 v 2.548468 z m 4.4704,0.08467 q -0.423334,0 -0.770467,-0.169334 -0.347134,-0.1778 -0.567267,-0.474133 -0.211667,-0.296334 -0.245534,-0.6604 v -1.710268 q 0.03387,-0.372533 0.254,-0.651933 0.220134,-0.287867 0.567267,-0.448734 0.347134,-0.169333 0.762001,-0.169333 0.5842,0 1.032936,0.2794 0.4572,0.2794 0.7112,0.770467 0.26246,0.4826 0.26246,1.100667 0,0.6096 -0.26246,1.0922 -0.254,0.4826 -0.7112,0.762001 -0.448736,0.2794 -1.032936,0.2794 z m -2.362201,-0.08467 v -6.146802 h 1.278467 v 3.048001 l -0.211667,0.9906 0.194734,1.007534 v 1.100667 z m 2.142067,-1.0668 q 0.270934,0 0.4826,-0.127 0.211667,-0.127001 0.3302,-0.347134 0.11853,-0.2286 0.11853,-0.516467 0,-0.287867 -0.11853,-0.508 -0.118533,-0.2286 -0.3302,-0.347134 -0.211666,-0.127 -0.491066,-0.127 -0.270934,0 -0.482601,0.127 -0.211666,0.118534 -0.3302,0.347134 -0.118533,0.220133 -0.118533,0.508 0,0.296334 0.118533,0.516467 0.118534,0.220133 0.3302,0.347134 0.211667,0.127 0.491067,0.127 z m 2.88713,1.0668 v -6.146802 h 1.27847 v 6.146802 z m 3.47134,0.0254 -1.69333,-4.140202 h 1.38006 l 1.07527,3.268135 h -0.49953 l 1.10913,-3.268135 h 1.3716 l -1.76107,4.140202 z m -1.0668,1.710267 1.23613,-2.667001 0.8128,0.956734 -0.7366,1.710267 z m 4.96148,-1.642534 q -0.3302,0 -0.55034,-0.220133 -0.22013,-0.2286 -0.22013,-0.550334 0,-0.3302 0.22013,-0.550333 0.22014,-0.2286 0.55034,-0.2286 0.3302,0 0.54186,0.2286 0.21167,0.220133 0.21167,0.550333 0,0.321734 -0.21167,0.550334 -0.21166,0.220133 -0.54186,0.220133 z m 0,-2.514601 q -0.3302,0 -0.55034,-0.220133 -0.22013,-0.2286 -0.22013,-0.550334 0,-0.3302 0.22013,-0.550333 0.22014,-0.220134 0.55034,-0.220134 0.3302,0 0.54186,0.220134 0.21167,0.220133 0.21167,0.550333 0,0.321734 -0.21167,0.550334 -0.21166,0.220133 -0.54186,0.220133 z m 4.74132,2.421468 v -5.884336 h 1.31233 v 5.884336 z m -1.87114,-4.826002 v -1.151467 h 5.06307 v 1.151467 z m 8.41588,4.826002 v -2.345268 q 0,-0.321733 -0.2032,-0.524933 -0.2032,-0.2032 -0.51647,-0.2032 -0.21166,0 -0.381,0.09313 -0.16086,0.09313 -0.254,0.262467 -0.0931,0.160867 -0.0931,0.372533 l -0.49107,-0.237066 q 0,-0.491067 0.2032,-0.846667 0.2032,-0.364067 0.56727,-0.567267 0.36407,-0.2032 0.8382,-0.2032 0.47413,0 0.8382,0.2032 0.36407,0.2032 0.56727,0.5588 0.2032,0.347133 0.2032,0.804334 v 2.633134 z m -2.72627,0 v -6.146802 h 1.27847 v 6.146802 z m 6.858,0.09313 q -0.66887,0 -1.18533,-0.270933 -0.51647,-0.2794 -0.8128,-0.762 -0.29634,-0.491067 -0.29634,-1.117601 0,-0.618067 0.28787,-1.100667 0.29633,-0.4826 0.79587,-0.762 0.49953,-0.287867 1.1176,-0.287867 0.6096,0 1.07527,0.270933 0.46566,0.262467 0.72813,0.728134 0.27093,0.465667 0.27093,1.058334 0,0.118533 -0.0169,0.237067 -0.008,0.118533 -0.0423,0.2794 l -3.53907,0.0085 v -0.880533 l 2.98873,-0.01693 -0.54186,0.381 q -0.008,-0.364066 -0.11854,-0.592666 -0.1016,-0.237067 -0.3048,-0.355601 -0.19473,-0.127 -0.49107,-0.127 -0.3048,0 -0.5334,0.143934 -0.2286,0.135466 -0.34713,0.389467 -0.11853,0.254 -0.11853,0.618067 0,0.364066 0.127,0.626533 0.127,0.262467 0.37253,0.4064 0.24553,0.135467 0.5842,0.135467 0.3048,0 0.55033,-0.1016 0.24554,-0.110067 0.43181,-0.321734 l 0.70273,0.702734 q -0.3048,0.3556 -0.7366,0.5334 -0.4318,0.1778 -0.94827,0.1778 z m 5.34247,-0.09313 V 84.9217 h 1.4224 q 0.38947,0 0.6096,-0.2286 0.22014,-0.2286 0.22014,-0.567267 0,-0.220133 -0.1016,-0.397934 -0.0931,-0.186266 -0.2794,-0.287866 -0.18627,-0.1016 -0.44874,-0.1016 h -1.4224 v -1.007534 h 1.31234 q 0.3302,0 0.5334,-0.160867 0.2032,-0.169333 0.2032,-0.508 0,-0.3302 -0.2032,-0.499534 -0.2032,-0.169333 -0.5334,-0.169333 h -1.31234 v -1.024467 h 1.5494 q 0.57574,0 0.98214,0.220133 0.4064,0.211667 0.6096,0.567267 0.21166,0.347134 0.21166,0.778934 0,0.550333 -0.3556,0.931334 -0.34713,0.381 -1.02446,0.524933 l 0.0339,-0.440267 q 0.74507,0.1524 1.15147,0.592667 0.4064,0.4318 0.4064,1.075267 0,0.491067 -0.24553,0.880534 -0.24554,0.389467 -0.69427,0.618067 -0.44873,0.2286 -1.08373,0.2286 z m -0.99906,0 v -5.977469 h 1.2954 v 5.977469 z m 7.01886,0.08467 q -0.56727,0 -1.016,-0.2794 -0.44027,-0.279401 -0.70273,-0.762001 -0.254,-0.4826 -0.254,-1.0922 0,-0.618067 0.254,-1.100667 0.26246,-0.491067 0.70273,-0.770467 0.44873,-0.2794 1.016,-0.2794 0.42333,0 0.75353,0.169333 0.33867,0.160867 0.54187,0.448734 0.21167,0.2794 0.24553,0.651933 v 1.744134 q -0.0339,0.372534 -0.24553,0.6604 -0.2032,0.287867 -0.54187,0.448734 -0.3302,0.160867 -0.75353,0.160867 z m 0.26247,-1.151467 q 0.41486,0 0.66886,-0.279401 0.26247,-0.2794 0.26247,-0.7112 0,-0.287867 -0.11853,-0.508 -0.11007,-0.2286 -0.32174,-0.347134 -0.21166,-0.127 -0.49106,-0.127 -0.27094,0 -0.4826,0.127 -0.21167,0.118534 -0.33867,0.347134 -0.11853,0.220133 -0.11853,0.508 0,0.287867 0.11853,0.516467 0.127,0.220133 0.33867,0.347134 0.21166,0.127 0.4826,0.127 z m 0.87206,1.0668 V 84.8455 l 0.19474,-1.007534 -0.19474,-0.9906 v -1.016001 h 1.26154 v 4.114802 z m 3.66607,0.1016 q -0.36406,0 -0.71966,-0.09313 -0.34714,-0.09313 -0.64347,-0.262467 -0.29633,-0.169334 -0.508,-0.4064 l 0.72813,-0.736601 q 0.21167,0.228601 0.49107,0.347134 0.2794,0.118533 0.6096,0.118533 0.2286,0 0.34714,-0.06773 0.127,-0.06773 0.127,-0.194733 0,-0.152401 -0.14394,-0.228601 -0.14393,-0.08467 -0.381,-0.143933 -0.2286,-0.06773 -0.4826,-0.143933 -0.254,-0.0762 -0.4826,-0.211667 -0.2286,-0.135467 -0.37253,-0.372534 -0.14394,-0.237066 -0.14394,-0.618067 0,-0.389466 0.19474,-0.6858 0.2032,-0.296333 0.57573,-0.4572 0.37253,-0.169333 0.87207,-0.169333 0.52493,0 0.9652,0.1778 0.44027,0.1778 0.71967,0.541867 l -0.72814,0.7366 q -0.19473,-0.2286 -0.44026,-0.321734 -0.23707,-0.1016 -0.47414,-0.1016 -0.22013,0 -0.3302,0.06773 -0.11007,0.06773 -0.11007,0.186266 0,0.135467 0.14394,0.211667 0.14393,0.0762 0.37253,0.135467 0.2286,0.05927 0.4826,0.143933 0.254,0.0762 0.4826,0.2286 0.2286,0.143934 0.37254,0.389467 0.14393,0.237067 0.14393,0.618067 0,0.601134 -0.44873,0.956734 -0.44874,0.3556 -1.21921,0.3556 z m 2.37067,-0.1016 v -4.114802 h 1.27846 v 4.114802 z m 0.64346,-4.690535 q -0.29633,0 -0.49953,-0.2032 -0.19473,-0.2032 -0.19473,-0.499534 0,-0.296333 0.19473,-0.499533 0.2032,-0.2032 0.49953,-0.2032 0.3048,0 0.49107,0.2032 0.19473,0.2032 0.19473,0.499533 0,0.296334 -0.19473,0.499534 -0.18627,0.2032 -0.49107,0.2032 z m 3.54754,4.783668 q -0.64346,0 -1.15993,-0.2794 -0.508,-0.2794 -0.80434,-0.762 -0.29633,-0.491067 -0.29633,-1.100667 0,-0.618067 0.29633,-1.100667 0.3048,-0.491067 0.81281,-0.770467 0.51646,-0.287867 1.15993,-0.287867 0.4826,0 0.88053,0.169333 0.4064,0.169334 0.71967,0.499534 l -0.8128,0.8128 q -0.14393,-0.1524 -0.34713,-0.2286 -0.19474,-0.08467 -0.44027,-0.08467 -0.2794,0 -0.49953,0.127 -0.21167,0.118534 -0.33867,0.338667 -0.127,0.220134 -0.127,0.516467 0,0.287867 0.127,0.516467 0.127,0.220133 0.34713,0.347134 0.22014,0.127 0.49107,0.127 0.26247,0 0.4572,-0.08467 0.2032,-0.09313 0.34713,-0.262467 l 0.8128,0.821267 q -0.32173,0.338667 -0.72813,0.516467 -0.39793,0.169333 -0.89747,0.169333 z m 3.94547,-0.09313 v -5.977469 h 1.31234 v 5.977469 z m 4.09787,0.08467 q -0.5842,0 -1.0414,-0.2794 -0.44874,-0.279401 -0.7112,-0.762001 -0.254,-0.4826 -0.254,-1.0922 0,-0.618067 0.254,-1.100667 0.26246,-0.491067 0.7112,-0.770467 0.4572,-0.2794 1.0414,-0.2794 0.42333,0 0.762,0.169333 0.34713,0.160867 0.56727,0.448734 0.2286,0.2794 0.254,0.651933 v 1.710268 q -0.0254,0.364066 -0.24554,0.6604 -0.22013,0.296333 -0.56726,0.474133 -0.34714,0.169334 -0.77047,0.169334 z m 0.2286,-1.151467 q 0.2794,0 0.4826,-0.127 0.21167,-0.127001 0.3302,-0.347134 0.11853,-0.220133 0.11853,-0.516467 0,-0.296333 -0.11853,-0.508 -0.11853,-0.220133 -0.3302,-0.347134 -0.2032,-0.127 -0.4826,-0.127 -0.27093,0 -0.4826,0.127 -0.21167,0.127001 -0.33867,0.347134 -0.11853,0.220133 -0.11853,0.508 0,0.287867 0.11853,0.516467 0.127,0.220133 0.33867,0.347134 0.21167,0.127 0.4826,0.127 z m 2.1336,1.0668 h -1.26153 V 84.8455 l 0.19473,-1.007534 -0.21167,-0.9906 v -3.048001 h 1.27847 z m 2.93794,0.09313 q -0.66887,0 -1.18534,-0.270933 -0.51646,-0.2794 -0.8128,-0.762 -0.29633,-0.491067 -0.29633,-1.117601 0,-0.618067 0.28787,-1.100667 0.29633,-0.4826 0.79586,-0.762 0.49954,-0.287867 1.1176,-0.287867 0.6096,0 1.07527,0.270933 0.46567,0.262467 0.72813,0.728134 0.27094,0.465667 0.27094,1.058334 0,0.118533 -0.0169,0.237067 -0.008,0.118533 -0.0423,0.2794 l -3.53907,0.0085 v -0.880533 l 2.98874,-0.01693 -0.54187,0.381 q -0.008,-0.364066 -0.11853,-0.592666 -0.1016,-0.237067 -0.3048,-0.355601 -0.19474,-0.127 -0.49107,-0.127 -0.3048,0 -0.5334,0.143934 -0.2286,0.135466 -0.34713,0.389467 -0.11854,0.254 -0.11854,0.618067 0,0.364066 0.127,0.626533 0.127,0.262467 0.37254,0.4064 0.24553,0.135467 0.5842,0.135467 0.3048,0 0.55033,-0.1016 0.24553,-0.110067 0.4318,-0.321734 l 0.70273,0.702734 q -0.3048,0.3556 -0.7366,0.5334 -0.4318,0.1778 -0.94826,0.1778 z m 4.32647,-0.0085 q -0.56727,0 -1.016,-0.2794 -0.44027,-0.279401 -0.70274,-0.762001 -0.254,-0.4826 -0.254,-1.0922 0,-0.618067 0.254,-1.100667 0.26247,-0.491067 0.70274,-0.770467 0.44873,-0.2794 1.016,-0.2794 0.42333,0 0.75353,0.169333 0.33867,0.160867 0.54187,0.448734 0.21167,0.2794 0.24553,0.651933 v 1.744134 q -0.0339,0.372534 -0.24553,0.6604 -0.2032,0.287867 -0.54187,0.448734 -0.3302,0.160867 -0.75353,0.160867 z m 0.26247,-1.151467 q 0.41486,0 0.66886,-0.279401 0.26247,-0.2794 0.26247,-0.7112 0,-0.287867 -0.11853,-0.508 -0.11007,-0.2286 -0.32174,-0.347134 -0.21166,-0.127 -0.49106,-0.127 -0.27094,0 -0.4826,0.127 -0.21167,0.118534 -0.33867,0.347134 -0.11853,0.220133 -0.11853,0.508 0,0.287867 0.11853,0.516467 0.127,0.220133 0.33867,0.347134 0.21166,0.127 0.4826,0.127 z m 0.87206,1.0668 V 84.8455 l 0.19474,-1.007534 -0.19474,-0.9906 v -1.016001 h 1.26154 v 4.114802 z"
       id="text3"
       style="font-size:8.46667px;font-family:Outfit;-inkscape-font-specification:'Outfit, @wght=690';font-variation-settings:'wght' 690;text-align:center;text-anchor:middle;fill:#ffffff;stroke-width:0.3"
       aria-label="RISC-V Assembly: The Basic Idea" />
    <text
       xml:space="preserve"
       style="font-style:normal;font-variant:normal;font-weight:normal;font-stretch:normal;font-size:8.46667px;font-family:Outfit;-inkscape-font-specification:'Outfit, @wght=690';font-variant-ligatures:normal;font-variant-caps:normal;font-variant-numeric:normal;font-variant-east-asian:normal;font-variation-settings:'wght' 690;text-align:center;writing-mode:lr-tb;direction:ltr;text-anchor:middle;fill:url(#linearGradient2);stroke:#ffffff;stroke-width:1;stroke-dasharray:none;stroke-opacity:1"
       x="95.81282"
       y="162.86545"
       id="text4-8"><tspan
         sodipodi:role="line"
         id="tspan4-0"
         style="font-style:normal;font-variant:normal;font-weight:normal;font-stretch:normal;font-size:7.05556px;font-family:Outfit;-inkscape-font-specification:'Outfit, @wght=400';font-variant-ligatures:normal;font-variant-caps:normal;font-variant-numeric:normal;font-variant-east-asian:normal;font-variation-settings:'wght' 400;fill:url(#linearGradient2);fill-opacity:1;stroke:none;stroke-width:1"
         x="95.81282"
         y="162.86545" /></text>
    <path
       d="m 181.74264,171.56557 q 0,-0.0124 0.0207,-0.0331 0.0207,-0.0207 0.0331,-0.0207 0.0538,0.11989 0.11989,0.25218 0.0661,0.13229 0.15296,0.24391 0.0909,0.11162 0.20671,0.1819 0.11575,0.0744 0.26458,0.0744 0.13229,0 0.23151,-0.0703 0.0992,-0.0703 0.13643,-0.20671 0.0248,-0.33899 -0.004,-0.67386 -0.0289,-0.33486 -0.0744,-0.66559 -0.0455,-0.33486 -0.091,-0.66559 -0.0455,-0.33486 -0.0496,-0.67386 0,-0.0207 -0.004,-0.0496 0,-0.0331 0.008,-0.062 0.008,-0.0289 0.0248,-0.0496 0.0165,-0.0207 0.0579,-0.0207 0.0455,0 0.0785,0.0579 0.10335,0.60358 0.18603,1.22783 0.0827,0.62425 0.0827,1.2361 0,0.16536 -0.0248,0.30592 -0.0207,0.14056 -0.0868,0.23978 -0.0661,0.10335 -0.1819,0.16123 -0.11575,0.062 -0.29766,0.062 -0.15709,0 -0.30179,-0.0744 -0.14056,-0.0703 -0.25218,-0.19431 -0.10748,-0.11989 -0.17363,-0.27285 -0.062,-0.15296 -0.062,-0.31006 z m 2.79879,0.47543 q -0.0207,-0.10749 -0.0372,-0.25632 -0.0124,-0.15296 -0.0289,-0.30592 -0.0165,-0.1571 -0.0413,-0.29352 -0.0207,-0.13643 -0.0662,-0.22325 -0.21084,0.42995 -0.37207,0.678 -0.16123,0.24391 -0.28525,0.3514 -0.11989,0.10335 -0.20258,0.0992 -0.0827,-0.004 -0.13642,-0.0744 -0.0537,-0.0703 -0.0785,-0.17777 -0.0207,-0.11162 -0.0289,-0.2067 0,-0.0909 0.0413,-0.25632 0.0413,-0.16536 0.11162,-0.35966 0.0703,-0.19844 0.16537,-0.40101 0.0992,-0.20257 0.21084,-0.36794 0.11162,-0.16536 0.23151,-0.27285 0.11989,-0.10749 0.23978,-0.10749 0.17776,-0.0289 0.26045,0.0786 0.0868,0.10335 0.0331,0.3514 0,0.27285 0.0207,0.46716 0.0248,0.1943 0.0496,0.37207 0.0289,0.17776 0.0496,0.37207 0.0248,0.1943 0.0248,0.46715 0,0.0496 -0.0124,0.0868 -0.008,0.0331 -0.0992,0.0331 -0.0124,0 -0.0331,-0.0207 -0.0165,-0.0207 -0.0165,-0.0331 z m -0.22324,-1.84795 q -0.0455,-0.0661 -0.12402,-0.0124 -0.0786,0.0537 -0.16537,0.17776 -0.0868,0.12403 -0.17776,0.29766 -0.091,0.17363 -0.1695,0.3514 -0.0786,0.17777 -0.13643,0.339 -0.0579,0.15709 -0.0786,0.26044 0,0.14883 0.0455,0.1695 0.0455,0.0165 0.11162,-0.0496 0.0661,-0.0661 0.14883,-0.19017 0.0868,-0.12402 0.16536,-0.26458 0.0827,-0.14056 0.15296,-0.27285 0.0744,-0.13229 0.11576,-0.21497 0.0372,-0.0868 0.0579,-0.16123 0.0207,-0.0744 0.0331,-0.14056 0.0165,-0.0703 0.0165,-0.14056 0.004,-0.0703 0.004,-0.14883 z m 0.59945,1.00459 q 0.0124,-0.14883 0.0248,-0.32246 0.0124,-0.17777 0.0372,-0.3514 0.0289,-0.17364 0.0703,-0.33073 0.0455,-0.1571 0.11575,-0.27699 0.0744,-0.12402 0.1819,-0.1943 0.10749,-0.0744 0.26045,-0.0703 0.10336,0 0.1571,0.0868 0.0579,0.0868 0.0786,0.21084 0.0248,0.12402 0.0248,0.25631 0.004,0.12816 0.004,0.21084 -0.0827,0 -0.13643,-0.0703 -0.0537,-0.0744 -0.0827,-0.1695 -0.0289,-0.0951 -0.0413,-0.18603 l -0.0124,-0.11989 q -0.004,0 -0.0165,0 -0.008,-0.004 -0.0124,-0.004 -0.0703,0 -0.1323,0.0786 -0.0579,0.0786 -0.11162,0.20257 -0.0496,0.11989 -0.0868,0.27285 -0.0372,0.14883 -0.062,0.29353 -0.0248,0.14469 -0.0413,0.26871 -0.0124,0.11989 -0.0124,0.18604 -0.008,0.10749 0,0.23564 0.008,0.12816 0.0496,0.23978 0.0413,0.11162 0.11576,0.1943 0.0744,0.0785 0.19843,0.10749 0.15297,0 0.24805,-0.0413 0.0951,-0.0413 0.15296,-0.11162 0.062,-0.0703 0.0951,-0.1571 0.0331,-0.0868 0.062,-0.17776 0.0331,-0.0951 0.0661,-0.18604 0.0331,-0.091 0.0951,-0.1695 0.0496,-0.0124 0.0703,0.004 0.0248,0.0124 0.0331,0.0372 0.008,0.0248 0.008,0.0579 v 0.0455 q 0,0.17363 -0.0579,0.33486 -0.0579,0.16123 -0.1695,0.28939 -0.11162,0.12402 -0.26871,0.20257 -0.15297,0.0744 -0.3514,0.0744 -0.16537,0 -0.27699,-0.10335 -0.10748,-0.10749 -0.1695,-0.25631 -0.0579,-0.14883 -0.0827,-0.31006 -0.0248,-0.16537 -0.0248,-0.28112 z m 1.77353,-2.22415 q 0.0868,-0.0827 0.13643,-0.0661 0.0537,0.0165 0.0785,0.11162 0.0248,0.0951 0.0289,0.24805 0.004,0.15296 -0.004,0.34726 -0.004,0.19017 -0.0207,0.40515 -0.0165,0.21084 -0.0289,0.41754 -0.0124,0.20257 -0.0165,0.38861 -0.004,0.18603 0.0124,0.32246 h 0.0124 q 0.008,0 0.0124,-0.004 0.21497,-0.21497 0.38447,-0.45475 0.1695,-0.23978 0.30593,-0.45062 0.13642,-0.21497 0.23978,-0.37207 0.10748,-0.15709 0.19843,-0.21497 0.062,0 0.10336,0.0207 0.0455,0.0207 0.0455,0.0951 0,0.008 -0.004,0.0289 0,0.0165 0,0.0248 -0.10336,0.21084 -0.22738,0.42581 -0.12402,0.21084 -0.26872,0.40928 -0.14469,0.19844 -0.31419,0.3762 -0.16536,0.17777 -0.35967,0.32246 0,0.004 -0.004,0.0165 0,0.008 0,0.0124 0,0.0413 0.0661,0.0909 0.0703,0.0496 0.17364,0.0951 0.10748,0.0455 0.23564,0.091 0.13229,0.0455 0.25632,0.0786 0.12815,0.0331 0.23564,0.0537 0.11162,0.0207 0.17363,0.0207 0,0.0165 0,0.062 0.004,0.0455 -0.004,0.0951 -0.008,0.0496 -0.0289,0.0909 -0.0207,0.0372 -0.0661,0.0372 h -0.0165 q -0.008,0 -0.0124,-0.004 l -1.18236,-0.47542 q -0.004,0.24391 -0.0331,0.39687 -0.0289,0.14883 -0.0703,0.21911 -0.0372,0.0744 -0.0827,0.0703 -0.0413,-0.004 -0.0744,-0.0661 z m 2.02158,3.11298 q 0,0.004 0.0868,-0.0496 0.091,-0.0537 0.21084,-0.14056 0.12402,-0.0909 0.25218,-0.1943 0.12815,-0.10749 0.21084,-0.20257 0.0827,-0.0951 0.0868,-0.16123 0.008,-0.0703 -0.11162,-0.0909 -0.14883,-0.0207 -0.25218,0.004 -0.0992,0.0248 -0.1819,0.0579 -0.0827,0.0331 -0.1571,0.062 -0.0703,0.0289 -0.15709,0.0207 -0.1819,0 -0.25218,-0.11162 -0.0661,-0.11576 -0.0661,-0.31006 0,-0.1943 0.0868,-0.36793 0.0868,-0.17777 0.22324,-0.30593 0.13643,-0.12816 0.31419,-0.20257 0.17777,-0.0786 0.3638,-0.0786 0.0744,0 0.12816,0.0124 0.0537,0.0124 0.0537,0.0951 0,0.0579 -0.0496,0.11162 -0.0496,0.0496 -0.11163,0.0496 -0.004,0 -0.0207,-0.004 -0.0165,-0.008 -0.0331,-0.0207 -0.0165,-0.0124 -0.0331,-0.0165 -0.0165,-0.008 -0.0207,-0.008 -0.13229,-0.0372 -0.25632,0.0372 -0.12402,0.0744 -0.22324,0.20257 -0.0951,0.12402 -0.15296,0.27285 -0.0579,0.14469 -0.0579,0.26045 0,0.0455 0.0165,0.0744 0.0207,0.0248 0.0496,0.0372 0.0331,0.0124 0.0703,0.0165 0.0413,0 0.0827,0 0.0827,0 0.16536,-0.0248 0.0868,-0.0248 0.16537,-0.0579 0.0827,-0.0331 0.16536,-0.0579 0.0868,-0.0248 0.17777,-0.0248 0.0413,0 0.091,0.0248 0.0496,0.0207 0.0909,0.0661 0.0413,0.0413 0.0703,0.0992 0.0289,0.0537 0.0331,0.11989 0.0248,0.0579 -0.0165,0.15296 -0.0372,0.0951 -0.11576,0.20257 -0.0786,0.10749 -0.19017,0.21911 -0.11162,0.10749 -0.22324,0.19844 -0.11162,0.0868 -0.21911,0.14056 -0.10748,0.0579 -0.1819,0.0537 -0.0827,0 -0.0992,-0.0496 -0.0124,-0.0496 -0.0124,-0.11162 z m 1.21956,-0.50436 q -0.0289,-0.19017 -0.0289,-0.36794 0,-0.1819 0.0207,-0.36793 0.0248,-0.18604 0.0662,-0.38447 0.0455,-0.20258 0.10335,-0.43409 0,-0.0455 0.0248,-0.0827 0.0248,-0.0413 0.0661,-0.0661 0.0413,-0.0289 0.0868,-0.0455 0.0455,-0.0165 0.0868,-0.0165 0.091,0 0.16536,0.0579 0.0744,0.0579 0.13229,0.14056 0.062,0.0827 0.10336,0.17777 0.0455,0.0909 0.0744,0.15709 0.0331,0.1447 0.0455,0.33073 0.0165,0.1819 0.004,0.37207 -0.0124,0.19017 -0.0579,0.37621 -0.0455,0.1819 -0.12816,0.33486 -0.0827,0.15296 -0.21497,0.25632 -0.12816,0.10335 -0.30592,0.12815 -0.0951,0 -0.1447,-0.062 -0.0496,-0.0661 -0.0744,-0.15709 -0.0207,-0.0951 -0.0248,-0.19017 0,-0.0951 0,-0.1571 z m 0.21084,-0.0124 q 0,0.0413 0,0.0786 0.004,0.0372 0.008,0.0744 0.008,0.0331 0.0165,0.0744 0.0124,0.0372 0.0289,0.0868 h 0.0248 q 0.0992,0 0.1695,-0.0662 0.0703,-0.0661 0.11989,-0.16949 0.0496,-0.10749 0.0827,-0.23565 0.0331,-0.13229 0.0496,-0.25631 0.0207,-0.12816 0.0248,-0.23565 0.008,-0.11162 0.008,-0.17776 v -0.0827 q 0,-0.0537 -0.004,-0.11989 -0.004,-0.0703 -0.0165,-0.14056 -0.008,-0.0744 -0.0289,-0.13229 -0.0207,-0.062 -0.0537,-0.0992 -0.0331,-0.0372 -0.0868,-0.0372 -0.0909,-0.0289 -0.15709,0.0124 -0.062,0.0413 -0.10336,0.14056 -0.0372,0.0951 -0.0579,0.23564 -0.0207,0.14056 -0.0248,0.31006 -0.004,0.1695 -0.004,0.35967 0.004,0.19017 0.004,0.38034 z m 1.09554,0.52503 q -0.0455,-0.55811 -0.0827,-1.11621 -0.0331,-0.56224 -0.0744,-1.16582 0,-0.0992 0.10748,-0.0992 h 0.0331 q 0.0124,0 0.0289,0.0331 0.0165,0.0331 0.0331,0.12403 0.0207,0.0868 0.0413,0.26872 0.0248,0.17776 0.0579,0.46715 0.0331,0.28939 0.0744,0.72347 0.0868,-0.28112 0.13643,-0.5457 0.0496,-0.26459 0.12815,-0.47956 0.0786,-0.21911 0.21911,-0.38447 0.14469,-0.16537 0.41341,-0.24392 0.14883,0.0248 0.23978,0.18191 0.0909,0.15296 0.14469,0.38033 0.0537,0.22738 0.0744,0.4961 0.0207,0.26458 0.0248,0.50849 0.004,0.24392 0.004,0.43822 0,0.19017 0.008,0.27285 -0.0124,0.0331 -0.0372,0.0579 -0.0248,0.0248 -0.0579,0.0372 -0.0289,0.008 -0.0579,0.004 -0.0289,-0.008 -0.0537,-0.0455 0,-0.0455 -0.008,-0.18603 -0.008,-0.14056 -0.0207,-0.3266 -0.0124,-0.19017 -0.0289,-0.40101 -0.0124,-0.21497 -0.0248,-0.401 -0.008,-0.19017 -0.0165,-0.33073 -0.008,-0.14056 -0.0124,-0.18604 -0.0868,-0.15296 -0.17363,-0.17363 -0.0827,-0.0207 -0.1695,0.0537 -0.0827,0.0744 -0.16123,0.22738 -0.0786,0.15296 -0.14883,0.34726 -0.0703,0.19017 -0.13229,0.40101 -0.062,0.21084 -0.10749,0.40928 -0.0455,0.1943 -0.0786,0.35553 -0.0289,0.1571 -0.0372,0.24392 -0.0124,0.0289 -0.0538,0.0579 -0.0372,0.0248 -0.0827,0.0372 -0.0413,0.0124 -0.0868,0.008 -0.0413,-0.008 -0.062,-0.0496 z m 5.01881,-1.37666 q -0.0455,0.0331 -0.16123,0.0992 -0.11162,0.062 -0.23978,0.13643 -0.12815,0.0744 -0.24391,0.14469 -0.11575,0.0661 -0.16123,0.0992 -0.0909,0.0703 -0.12402,0.16123 -0.0331,0.0909 -0.0331,0.19844 0,0.10335 0.0207,0.2191 0.0207,0.11162 0.0289,0.22738 0,0.0579 -0.0372,0.10749 -0.0372,0.0496 -0.0951,0.0496 -0.0248,0 -0.0537,-0.0124 -0.0289,-0.0165 -0.0289,-0.0455 l -0.0951,-2.64997 q 0,-0.0248 0.0165,-0.0661 0.0207,-0.0413 0.0331,-0.0455 0.0124,0 0.0331,0.004 0.0248,0.004 0.0496,0.0165 0.0248,0.008 0.0455,0.0207 0.0248,0.008 0.0331,0.0165 0.0165,0.16536 0.0207,0.38034 0.004,0.21497 0.008,0.43408 0.008,0.21911 0.0207,0.42581 0.0165,0.20257 0.0537,0.34313 0.17777,-0.0744 0.33486,-0.14056 0.1571,-0.0661 0.27285,-0.15296 0.11576,-0.0868 0.1819,-0.21084 0.0661,-0.12816 0.062,-0.31832 0,-0.10336 -0.004,-0.18191 -0.004,-0.0785 -0.0165,-0.15296 -0.0124,-0.0786 -0.0372,-0.16536 -0.0207,-0.0909 -0.0538,-0.20671 -0.008,-0.0744 0.0248,-0.0951 0.0331,-0.0207 0.0786,-0.0207 0.0537,0 0.0827,0.0248 0.0289,0.0248 0.0455,0.0661 0.0207,0.0413 0.0248,0.091 0.004,0.0455 0.008,0.0868 0.008,0.0661 0.0207,0.19844 0.0124,0.13229 0.0248,0.30179 0.0165,0.16537 0.0331,0.3514 0.0207,0.18604 0.0372,0.3514 0.0165,0.16537 0.0248,0.29766 0.0124,0.13229 0.0207,0.19843 0.0124,0.1571 0.0331,0.31006 0.0207,0.15297 0.0207,0.3142 v 0.0661 q 0,0.0331 -0.008,0.0661 -0.004,0.0289 -0.0289,0.0537 -0.0207,0.0207 -0.0703,0.0331 -0.0744,-0.0537 -0.0868,-0.11989 -0.0124,-0.0661 -0.0207,-0.14469 -0.004,-0.0455 -0.008,-0.13643 -0.004,-0.0951 -0.0165,-0.2067 -0.008,-0.11576 -0.0207,-0.23978 -0.008,-0.12816 -0.0207,-0.23978 -0.008,-0.11575 -0.0165,-0.2067 -0.008,-0.0909 -0.0124,-0.13643 z m 1.60817,0.95085 q -0.0165,0.0496 -0.0827,0.13642 -0.062,0.0827 -0.14883,0.1695 -0.0868,0.0827 -0.1819,0.14883 -0.0909,0.062 -0.16123,0.062 -0.13229,0 -0.21911,-0.12402 -0.0827,-0.12403 -0.12815,-0.31833 -0.0455,-0.1943 -0.062,-0.42995 -0.0165,-0.23978 -0.0207,-0.46715 -0.004,-0.22738 -0.004,-0.41341 0,-0.18604 -0.0124,-0.28112 0.0165,-0.0413 0.0413,-0.0496 0.0289,-0.008 0.0661,-0.008 0.0331,0 0.0579,0.008 0.0289,0.008 0.0496,0.0496 0,0.0455 0,0.15296 0.004,0.10749 0.0124,0.24391 0.008,0.13229 0.0165,0.28112 0.008,0.1447 0.0124,0.27699 0.008,0.13229 0.0124,0.23978 0.008,0.10335 0.0124,0.15296 0.004,0.0289 0.008,0.0951 0.008,0.0661 0.0207,0.14056 0.0165,0.0703 0.0372,0.12816 0.0248,0.0579 0.062,0.062 0.062,0 0.12403,-0.0537 0.0661,-0.0538 0.12816,-0.13643 0.062,-0.0827 0.11575,-0.1819 0.0537,-0.0992 0.0951,-0.19017 0.0455,-0.0951 0.0662,-0.1695 0.0248,-0.0744 0.0289,-0.10748 0.008,-0.0703 0.0165,-0.19844 0.008,-0.13229 0.0124,-0.28112 0.004,-0.14883 0.004,-0.28112 0.004,-0.13229 0.004,-0.20257 l 0.22737,0.0124 q 0.004,0.33486 -0.004,0.60772 -0.008,0.26871 -0.004,0.50849 0.004,0.23565 0.0372,0.45889 0.0331,0.22324 0.11989,0.46302 -0.0124,0.0124 -0.0496,0.0331 -0.0372,0.0248 -0.0537,0.0248 -0.10335,0 -0.14056,-0.0703 -0.0331,-0.0661 -0.0455,-0.1571 -0.008,-0.0951 -0.0165,-0.18604 -0.004,-0.0951 -0.0538,-0.14882 z m 0.91777,-1.04593 q -0.0165,0 -0.0496,0.0165 -0.0331,0.0124 -0.0703,0.0331 -0.0331,0.0165 -0.0661,0.0331 -0.0331,0.0165 -0.0579,0.0165 -0.0413,0 -0.0744,-0.0165 -0.0289,-0.0165 -0.0289,-0.0661 0,-0.0413 0.0372,-0.0786 0.0413,-0.0372 0.0951,-0.0744 0.0537,-0.0372 0.10749,-0.0703 0.0537,-0.0331 0.0786,-0.0661 -0.008,-0.0661 -0.0124,-0.24804 -0.004,-0.1819 0,-0.41341 0.008,-0.23565 0.0289,-0.48369 0.0248,-0.24805 0.0703,-0.44235 0.0496,-0.19844 0.12816,-0.31006 0.0786,-0.11162 0.20257,-0.0703 0.0868,0 0.1571,0.0537 0.0703,0.0496 0.11989,0.12816 0.0496,0.0744 0.0744,0.16536 0.0289,0.0909 0.0289,0.16537 0,0.0413 -0.0207,0.091 -0.0165,0.0455 -0.0661,0.0455 h -0.0124 q -0.004,0 -0.008,-0.004 -0.0992,-0.25218 -0.1695,-0.31833 -0.0661,-0.0703 -0.11575,-0.004 -0.0455,0.0661 -0.0786,0.23564 -0.0289,0.1695 -0.0496,0.39274 -0.0207,0.21911 -0.0372,0.46716 -0.0165,0.24391 -0.0331,0.45475 0.0827,-0.0207 0.13643,-0.0413 0.0579,-0.0207 0.10335,-0.0413 0.0455,-0.0248 0.0827,-0.0455 0.0372,-0.0248 0.0827,-0.0413 0.0868,-0.0413 0.19017,-0.0785 0.10749,-0.0413 0.20671,-0.0413 0,0.11989 -0.0455,0.19844 -0.0413,0.0786 -0.11162,0.12816 -0.0661,0.0496 -0.15296,0.0744 -0.0868,0.0207 -0.17777,0.0372 -0.0868,0.0165 -0.16536,0.0331 -0.0786,0.0165 -0.13643,0.0413 0.0124,0.26872 0.0331,0.47129 0.0248,0.20257 0.0413,0.35967 0.0207,0.15709 0.0289,0.28939 0.0124,0.12815 0,0.25631 0,0.0289 0,0.0827 0.004,0.0496 -0.004,0.0992 -0.004,0.0496 -0.0289,0.0868 -0.0248,0.0331 -0.0785,0.0331 -0.0496,0 -0.0744,-0.0207 -0.0248,-0.0248 -0.0331,-0.0951 -0.0248,-0.33487 -0.0413,-0.56638 -0.0124,-0.23564 -0.0207,-0.39274 -0.008,-0.16123 -0.008,-0.25218 v -0.19017 q 0,-0.0165 -0.004,-0.0165 z m 1.46348,0 q -0.0165,0 -0.0496,0.0165 -0.0331,0.0124 -0.0703,0.0331 -0.0331,0.0165 -0.0661,0.0331 -0.0331,0.0165 -0.0579,0.0165 -0.0413,0 -0.0744,-0.0165 -0.0289,-0.0165 -0.0289,-0.0661 0,-0.0413 0.0372,-0.0786 0.0413,-0.0372 0.0951,-0.0744 0.0537,-0.0372 0.10748,-0.0703 0.0538,-0.0331 0.0786,-0.0661 -0.008,-0.0661 -0.0124,-0.24804 -0.004,-0.1819 0,-0.41341 0.008,-0.23565 0.0289,-0.48369 0.0248,-0.24805 0.0703,-0.44235 0.0496,-0.19844 0.12816,-0.31006 0.0785,-0.11162 0.20257,-0.0703 0.0868,0 0.15709,0.0537 0.0703,0.0496 0.11989,0.12816 0.0496,0.0744 0.0744,0.16536 0.0289,0.0909 0.0289,0.16537 0,0.0413 -0.0207,0.091 -0.0165,0.0455 -0.0661,0.0455 h -0.0124 q -0.004,0 -0.008,-0.004 -0.0992,-0.25218 -0.1695,-0.31833 -0.0661,-0.0703 -0.11576,-0.004 -0.0455,0.0661 -0.0785,0.23564 -0.0289,0.1695 -0.0496,0.39274 -0.0207,0.21911 -0.0372,0.46716 -0.0165,0.24391 -0.0331,0.45475 0.0827,-0.0207 0.13642,-0.0413 0.0579,-0.0207 0.10336,-0.0413 0.0455,-0.0248 0.0827,-0.0455 0.0372,-0.0248 0.0827,-0.0413 0.0868,-0.0413 0.19017,-0.0785 0.10749,-0.0413 0.20671,-0.0413 0,0.11989 -0.0455,0.19844 -0.0413,0.0786 -0.11162,0.12816 -0.0662,0.0496 -0.15296,0.0744 -0.0868,0.0207 -0.17777,0.0372 -0.0868,0.0165 -0.16536,0.0331 -0.0786,0.0165 -0.13643,0.0413 0.0124,0.26872 0.0331,0.47129 0.0248,0.20257 0.0413,0.35967 0.0207,0.15709 0.0289,0.28939 0.0124,0.12815 0,0.25631 0,0.0289 0,0.0827 0.004,0.0496 -0.004,0.0992 -0.004,0.0496 -0.0289,0.0868 -0.0248,0.0331 -0.0786,0.0331 -0.0496,0 -0.0744,-0.0207 -0.0248,-0.0248 -0.0331,-0.0951 -0.0248,-0.33487 -0.0413,-0.56638 -0.0124,-0.23564 -0.0207,-0.39274 -0.008,-0.16123 -0.008,-0.25218 v -0.19017 q 0,-0.0165 -0.004,-0.0165 z"
       id="text50"
       style="font-size:4.23333px;font-family:'Shadows Into Light';-inkscape-font-specification:'Shadows Into Light, @wght=400';font-variation-settings:'wght' 400;text-align:center;text-anchor:middle;fill:#ffffff"
       aria-label="Jackson Huff" />
    <path
       style="font-size:8.46667px;font-family:'Source Code Pro';-inkscape-font-specification:'Source Code Pro, @wght=400';font-variation-settings:'wght' 400;text-align:center;text-anchor:middle;fill:#ffffff"
       d="m 63.78233,107.08865 c 0.5842,0 1.1684,-0.3048 1.6256,-0.6604 h 0.0254 l 0.05927,0.5588 h 0.567267 v -2.52306 c 0,-1.02447 -0.541867,-1.69334 -1.667934,-1.69334 -0.719667,0 -1.413934,0.32173 -1.828801,0.59267 l 0.270934,0.47413 c 0.381,-0.23707 0.905933,-0.49107 1.439333,-0.49107 0.795867,0 1.075268,0.47414 1.092201,1.03294 -2.125134,0.16933 -2.980268,0.61807 -2.980268,1.54093 0,0.7366 0.626534,1.1684 1.397001,1.1684 z m 0.186266,-0.5588 c -0.474133,0 -0.905933,-0.19473 -0.905933,-0.6604 0,-0.54186 0.541867,-0.889 2.302934,-1.03293 v 1.08373 c -0.465667,0.38947 -0.931334,0.6096 -1.397001,0.6096 z m 5.105406,0.5588 c 0.508,0 0.999067,-0.29633 1.337733,-0.64346 h 0.0254 l 0.05927,0.54186 h 0.575734 v -6.02827 h -0.694267 v 1.58327 l 0.03387,0.762 h -0.0254 c -0.3556,-0.33867 -0.7366,-0.5334 -1.227667,-0.5334 -0.973667,0 -1.871134,0.82973 -1.871134,2.16747 0,1.3716 0.7112,2.15053 1.786468,2.15053 z m 0.143933,-0.5842 c -0.762,0 -1.210734,-0.59266 -1.210734,-1.5748 0,-0.9398 0.575734,-1.5748 1.286934,-1.5748 0.3556,0 0.7112,0.13547 1.083734,0.4826 v 2.04894 c -0.364067,0.4064 -0.753534,0.61806 -1.159934,0.61806 z m 4.936072,0.5842 c 0.508,0 0.999067,-0.29633 1.337734,-0.64346 h 0.0254 l 0.05927,0.54186 h 0.575734 v -6.02827 h -0.694267 v 1.58327 l 0.03387,0.762 h -0.0254 c -0.355601,-0.33867 -0.736601,-0.5334 -1.227668,-0.5334 -0.973667,0 -1.871134,0.82973 -1.871134,2.16747 0,1.3716 0.711201,2.15053 1.786468,2.15053 z m 0.143933,-0.5842 c -0.762,0 -1.210734,-0.59266 -1.210734,-1.5748 0,-0.9398 0.575734,-1.5748 1.286934,-1.5748 0.3556,0 0.7112,0.13547 1.083734,0.4826 v 2.04894 c -0.364067,0.4064 -0.753534,0.61806 -1.159934,0.61806 z m 5.317072,0.4826 h 0.694266 v -4.1148 h -2.607734 v 0.56727 h 1.913468 z m 0.270933,-4.9784 c 0.313267,0 0.5588,-0.21167 0.5588,-0.54187 0,-0.32173 -0.245533,-0.54186 -0.5588,-0.54186 -0.313267,0 -0.5588,0.22013 -0.5588,0.54186 0,0.3302 0.245533,0.54187 0.5588,0.54187 z m 9.296411,5.08 c 0.5842,0 1.1684,-0.3048 1.625601,-0.6604 h 0.0254 l 0.05927,0.5588 h 0.567267 v -2.52306 c 0,-1.02447 -0.541867,-1.69334 -1.667934,-1.69334 -0.719667,0 -1.413934,0.32173 -1.828801,0.59267 l 0.270934,0.47413 c 0.381,-0.23707 0.905934,-0.49107 1.439334,-0.49107 0.795867,0 1.075267,0.47414 1.0922,1.03294 -2.125134,0.16933 -2.980268,0.61807 -2.980268,1.54093 0,0.7366 0.626534,1.1684 1.397001,1.1684 z m 0.186267,-0.5588 c -0.474134,0 -0.905934,-0.19473 -0.905934,-0.6604 0,-0.54186 0.541867,-0.889 2.302934,-1.03293 v 1.08373 c -0.465667,0.38947 -0.931333,0.6096 -1.397,0.6096 z m 5.350937,0.5588 c 1.202267,0 1.938867,-1.02446 1.938867,-2.8194 0,-1.81187 -0.7366,-2.78553 -1.938867,-2.78553 -1.202267,0 -1.938868,0.97366 -1.938868,2.78553 0,1.79494 0.736601,2.8194 1.938868,2.8194 z m 0,-0.5588 c -0.753534,0 -1.286934,-0.7112 -1.286934,-2.2606 0,-1.55787 0.5334,-2.22673 1.286934,-2.22673 0.753533,0 1.286934,0.66886 1.286934,2.22673 0,1.5494 -0.533401,2.2606 -1.286934,2.2606 z m 0,-1.7526 c 0.2794,0 0.524933,-0.21166 0.524933,-0.56726 0,-0.34714 -0.245533,-0.55881 -0.524933,-0.55881 -0.2794,0 -0.524934,0.21167 -0.524934,0.55881 0,0.3556 0.245534,0.56726 0.524934,0.56726 z m 4.402672,4.0132 c 0.931338,-0.34713 1.490138,-1.0414 1.490138,-2.032 0,-0.6604 -0.26247,-1.08373 -0.762004,-1.08373 -0.364067,0 -0.677334,0.2286 -0.677334,0.64347 0,0.42333 0.296333,0.635 0.6604,0.635 0.0508,0 0.110067,0 0.160867,-0.0169 -0.0254,0.66887 -0.372534,1.10067 -1.066801,1.41394 z m 10.380148,-1.7018 c 0.5842,0 1.1684,-0.3048 1.6256,-0.6604 h 0.0254 l 0.0593,0.5588 h 0.56727 v -2.52306 c 0,-1.02447 -0.54187,-1.69334 -1.66793,-1.69334 -0.71967,0 -1.41394,0.32173 -1.8288,0.59267 l 0.27093,0.47413 c 0.381,-0.23707 0.90593,-0.49107 1.43933,-0.49107 0.79587,0 1.07527,0.47414 1.0922,1.03294 -2.12513,0.16933 -2.98026,0.61807 -2.98026,1.54093 0,0.7366 0.62653,1.1684 1.397,1.1684 z m 0.18626,-0.5588 c -0.47413,0 -0.90593,-0.19473 -0.90593,-0.6604 0,-0.54186 0.54187,-0.889 2.30293,-1.03293 v 1.08373 c -0.46566,0.38947 -0.93133,0.6096 -1.397,0.6096 z m 3.63221,0.4572 h 3.66607 v -0.57573 h -1.41394 v -4.826 h -0.51646 c -0.34714,0.18626 -0.75354,0.31326 -1.38854,0.39793 v 0.44873 h 1.21074 v 3.97934 h -1.55787 z m 6.1214,1.8034 c 0.93134,-0.34713 1.49014,-1.0414 1.49014,-2.032 0,-0.6604 -0.26247,-1.08373 -0.762,-1.08373 -0.36407,0 -0.67734,0.2286 -0.67734,0.64347 0,0.42333 0.29634,0.635 0.6604,0.635 0.0508,0 0.11007,0 0.16087,-0.0169 -0.0254,0.66887 -0.37253,1.10067 -1.0668,1.41394 z m 8.91542,-1.8034 h 3.80153 v -0.60113 h -1.778 c -0.32173,0 -0.66887,0.0254 -1.00753,0.0508 1.4732,-1.33773 2.4892,-2.34527 2.4892,-3.36127 0,-0.95673 -0.67734,-1.59173 -1.76107,-1.59173 -0.762,0 -1.2954,0.3302 -1.778,0.82126 l 0.39793,0.39794 c 0.34714,-0.36407 0.7874,-0.65194 1.2954,-0.65194 0.79587,0 1.17687,0.44027 1.17687,1.05834 0,0.89747 -1.00753,1.84573 -2.83633,3.46287 z m 7.00193,0.1016 c 1.20227,0 1.93887,-1.02446 1.93887,-2.8194 0,-1.81187 -0.7366,-2.78553 -1.93887,-2.78553 -1.20227,0 -1.93887,0.97366 -1.93887,2.78553 0,1.79494 0.7366,2.8194 1.93887,2.8194 z m 0,-0.5588 c -0.75353,0 -1.28693,-0.7112 -1.28693,-2.2606 0,-1.55787 0.5334,-2.22673 1.28693,-2.22673 0.75353,0 1.28694,0.66886 1.28694,2.22673 0,1.5494 -0.53341,2.2606 -1.28694,2.2606 z m 0,-1.7526 c 0.2794,0 0.52493,-0.21166 0.52493,-0.56726 0,-0.34714 -0.24553,-0.55881 -0.52493,-0.55881 -0.2794,0 -0.52493,0.21167 -0.52493,0.55881 0,0.3556 0.24553,0.56726 0.52493,0.56726 z"
       id="text5"
       aria-label="addi a0, a1, 20" />
    <path
       d="m 27.530228,137.79634 q -0.660401,0 -1.210734,-0.37254 -0.541867,-0.37253 -0.8636,-1.04986 -0.321734,-0.6858 -0.321734,-1.60867 0,-0.92287 0.313267,-1.6002 0.321733,-0.67734 0.8636,-1.0414 0.541867,-0.37254 1.193801,-0.37254 0.668867,0 1.210734,0.37254 0.541866,0.36406 0.855133,1.0414 0.321734,0.67733 0.321734,1.60867 0,0.92286 -0.321734,1.60866 -0.313267,0.67734 -0.855133,1.04987 -0.533401,0.36407 -1.185334,0.36407 z m -0.01693,-0.75354 q 0.465667,0 0.812801,-0.254 0.3556,-0.26246 0.5588,-0.77046 0.2032,-0.508 0.2032,-1.25307 0,-0.74507 -0.2032,-1.2446 -0.2032,-0.508 -0.5588,-0.762 -0.3556,-0.26247 -0.821267,-0.26247 -0.4572,0 -0.812801,0.26247 -0.3556,0.254 -0.5588,0.762 -0.194733,0.49953 -0.194733,1.2446 0,0.74507 0.194733,1.25307 0.2032,0.508 0.5588,0.77046 0.355601,0.254 0.821267,0.254 z m 5.57107,0.75354 q -0.6604,0 -1.210733,-0.37254 -0.541867,-0.37253 -0.863601,-1.04986 -0.321733,-0.6858 -0.321733,-1.60867 0,-0.92287 0.313267,-1.6002 0.321733,-0.67734 0.8636,-1.0414 0.541867,-0.37254 1.1938,-0.37254 0.668867,0 1.210734,0.37254 0.541867,0.36406 0.855134,1.0414 0.321733,0.67733 0.321733,1.60867 0,0.92286 -0.321733,1.60866 -0.313267,0.67734 -0.855134,1.04987 -0.5334,0.36407 -1.185334,0.36407 z m -0.01693,-0.75354 q 0.465667,0 0.8128,-0.254 0.355601,-0.26246 0.558801,-0.77046 0.2032,-0.508 0.2032,-1.25307 0,-0.74507 -0.2032,-1.2446 -0.2032,-0.508 -0.558801,-0.762 -0.3556,-0.26247 -0.821267,-0.26247 -0.4572,0 -0.8128,0.26247 -0.3556,0.254 -0.5588,0.762 -0.194733,0.49953 -0.194733,1.2446 0,0.74507 0.194733,1.25307 0.2032,0.508 0.5588,0.77046 0.3556,0.254 0.821267,0.254 z m 5.57107,0.75354 q -0.6604,0 -1.210734,-0.37254 -0.541866,-0.37253 -0.8636,-1.04986 -0.321733,-0.6858 -0.321733,-1.60867 0,-0.92287 0.313266,-1.6002 0.321734,-0.67734 0.863601,-1.0414 0.541867,-0.37254 1.1938,-0.37254 0.668867,0 1.210734,0.37254 0.541867,0.36406 0.855134,1.0414 0.321733,0.67733 0.321733,1.60867 0,0.92286 -0.321733,1.60866 -0.313267,0.67734 -0.855134,1.04987 -0.5334,0.36407 -1.185334,0.36407 z m -0.01693,-0.75354 q 0.465667,0 0.8128,-0.254 0.3556,-0.26246 0.5588,-0.77046 0.203201,-0.508 0.203201,-1.25307 0,-0.74507 -0.203201,-1.2446 -0.2032,-0.508 -0.5588,-0.762 -0.3556,-0.26247 -0.821267,-0.26247 -0.4572,0 -0.8128,0.26247 -0.3556,0.254 -0.5588,0.762 -0.194734,0.49953 -0.194734,1.2446 0,0.74507 0.194734,1.25307 0.2032,0.508 0.5588,0.77046 0.3556,0.254 0.821267,0.254 z m 5.57107,0.75354 q -0.6604,0 -1.210733,-0.37254 -0.541867,-0.37253 -0.863601,-1.04986 -0.321733,-0.6858 -0.321733,-1.60867 0,-0.92287 0.313267,-1.6002 0.321733,-0.67734 0.8636,-1.0414 0.541867,-0.37254 1.1938,-0.37254 0.668867,0 1.210734,0.37254 0.541867,0.36406 0.855134,1.0414 0.321733,0.67733 0.321733,1.60867 0,0.92286 -0.321733,1.60866 -0.313267,0.67734 -0.855134,1.04987 -0.5334,0.36407 -1.185334,0.36407 z m -0.01693,-0.75354 q 0.465667,0 0.8128,-0.254 0.355601,-0.26246 0.558801,-0.77046 0.2032,-0.508 0.2032,-1.25307 0,-0.74507 -0.2032,-1.2446 -0.2032,-0.508 -0.558801,-0.762 -0.3556,-0.26247 -0.821267,-0.26247 -0.4572,0 -0.8128,0.26247 -0.3556,0.254 -0.5588,0.762 -0.194733,0.49953 -0.194733,1.2446 0,0.74507 0.194733,1.25307 0.2032,0.508 0.5588,0.77046 0.3556,0.254 0.821267,0.254 z m 5.57107,0.75354 q -0.660401,0 -1.210734,-0.37254 -0.541867,-0.37253 -0.8636,-1.04986 -0.321734,-0.6858 -0.321734,-1.60867 0,-0.92287 0.313267,-1.6002 0.321733,-0.67734 0.8636,-1.0414 0.541867,-0.37254 1.193801,-0.37254 0.668867,0 1.210734,0.37254 0.541866,0.36406 0.855133,1.0414 0.321734,0.67733 0.321734,1.60867 0,0.92286 -0.321734,1.60866 -0.313267,0.67734 -0.855133,1.04987 -0.533401,0.36407 -1.185334,0.36407 z m -0.01693,-0.75354 q 0.465667,0 0.812801,-0.254 0.3556,-0.26246 0.5588,-0.77046 0.2032,-0.508 0.2032,-1.25307 0,-0.74507 -0.2032,-1.2446 -0.2032,-0.508 -0.5588,-0.762 -0.3556,-0.26247 -0.821267,-0.26247 -0.4572,0 -0.812801,0.26247 -0.3556,0.254 -0.5588,0.762 -0.194733,0.49953 -0.194733,1.2446 0,0.74507 0.194733,1.25307 0.2032,0.508 0.5588,0.77046 0.355601,0.254 0.821267,0.254 z m 5.57107,0.75354 q -0.6604,0 -1.210734,-0.37254 -0.541867,-0.37253 -0.8636,-1.04986 -0.321734,-0.6858 -0.321734,-1.60867 0,-0.92287 0.313267,-1.6002 0.321734,-0.67734 0.863601,-1.0414 0.541866,-0.37254 1.1938,-0.37254 0.668867,0 1.210734,0.37254 0.541867,0.36406 0.855134,1.0414 0.321733,0.67733 0.321733,1.60867 0,0.92286 -0.321733,1.60866 -0.313267,0.67734 -0.855134,1.04987 -0.5334,0.36407 -1.185334,0.36407 z m -0.01693,-0.75354 q 0.465667,0 0.8128,-0.254 0.3556,-0.26246 0.5588,-0.77046 0.2032,-0.508 0.2032,-1.25307 0,-0.74507 -0.2032,-1.2446 -0.2032,-0.508 -0.5588,-0.762 -0.3556,-0.26247 -0.821267,-0.26247 -0.4572,0 -0.8128,0.26247 -0.3556,0.254 -0.558801,0.762 -0.194733,0.49953 -0.194733,1.2446 0,0.74507 0.194733,1.25307 0.203201,0.508 0.558801,0.77046 0.3556,0.254 0.821267,0.254 z m 5.571071,0.75354 q -0.6604,0 -1.210734,-0.37254 -0.541866,-0.37253 -0.8636,-1.04986 -0.321733,-0.6858 -0.321733,-1.60867 0,-0.92287 0.313266,-1.6002 0.321734,-0.67734 0.863601,-1.0414 0.541867,-0.37254 1.1938,-0.37254 0.668867,0 1.210734,0.37254 0.541867,0.36406 0.855134,1.0414 0.321733,0.67733 0.321733,1.60867 0,0.92286 -0.321733,1.60866 -0.313267,0.67734 -0.855134,1.04987 -0.5334,0.36407 -1.185334,0.36407 z m -0.01693,-0.75354 q 0.465667,0 0.8128,-0.254 0.3556,-0.26246 0.5588,-0.77046 0.2032,-0.508 0.2032,-1.25307 0,-0.74507 -0.2032,-1.2446 -0.2032,-0.508 -0.5588,-0.762 -0.3556,-0.26247 -0.821267,-0.26247 -0.4572,0 -0.8128,0.26247 -0.3556,0.254 -0.5588,0.762 -0.194734,0.49953 -0.194734,1.2446 0,0.74507 0.194734,1.25307 0.2032,0.508 0.5588,0.77046 0.3556,0.254 0.821267,0.254 z m 4.2418,0.66887 v -5.87587 h 0.787401 v 5.87587 z M 63.877649,132.547 v -0.7112 h 1.905001 v 0.7112 z m 5.469473,5.24934 q -0.6604,0 -1.210734,-0.37254 -0.541866,-0.37253 -0.8636,-1.04986 -0.321733,-0.6858 -0.321733,-1.60867 0,-0.92287 0.313266,-1.6002 0.321734,-0.67734 0.863601,-1.0414 0.541867,-0.37254 1.1938,-0.37254 0.668867,0 1.210734,0.37254 0.541867,0.36406 0.855134,1.0414 0.321733,0.67733 0.321733,1.60867 0,0.92286 -0.321733,1.60866 -0.313267,0.67734 -0.855134,1.04987 -0.5334,0.36407 -1.185334,0.36407 z m -0.01693,-0.75354 q 0.465667,0 0.8128,-0.254 0.3556,-0.26246 0.5588,-0.77046 0.203201,-0.508 0.203201,-1.25307 0,-0.74507 -0.203201,-1.2446 -0.2032,-0.508 -0.5588,-0.762 -0.3556,-0.26247 -0.821267,-0.26247 -0.4572,0 -0.8128,0.26247 -0.3556,0.254 -0.5588,0.762 -0.194734,0.49953 -0.194734,1.2446 0,0.74507 0.194734,1.25307 0.2032,0.508 0.5588,0.77046 0.3556,0.254 0.821267,0.254 z m 4.2418,0.66887 v -5.87587 h 0.787401 v 5.87587 z M 72.369722,132.547 v -0.7112 h 1.905001 v 0.7112 z m 5.46947,5.24934 q -0.660401,0 -1.210734,-0.37254 -0.541867,-0.37253 -0.863601,-1.04986 -0.321733,-0.6858 -0.321733,-1.60867 0,-0.92287 0.313267,-1.6002 0.321733,-0.67734 0.8636,-1.0414 0.541867,-0.37254 1.193801,-0.37254 0.668866,0 1.210733,0.37254 0.541867,0.36406 0.855134,1.0414 0.321733,0.67733 0.321733,1.60867 0,0.92286 -0.321733,1.60866 -0.313267,0.67734 -0.855134,1.04987 -0.5334,0.36407 -1.185333,0.36407 z m -0.01693,-0.75354 q 0.465667,0 0.8128,-0.254 0.355601,-0.26246 0.558801,-0.77046 0.2032,-0.508 0.2032,-1.25307 0,-0.74507 -0.2032,-1.2446 -0.2032,-0.508 -0.558801,-0.762 -0.3556,-0.26247 -0.821266,-0.26247 -0.457201,0 -0.812801,0.26247 -0.3556,0.254 -0.5588,0.762 -0.194733,0.49953 -0.194733,1.2446 0,0.74507 0.194733,1.25307 0.2032,0.508 0.5588,0.77046 0.3556,0.254 0.821267,0.254 z m 5.571072,0.75354 q -0.660401,0 -1.210734,-0.37254 -0.541867,-0.37253 -0.8636,-1.04986 -0.321734,-0.6858 -0.321734,-1.60867 0,-0.92287 0.313267,-1.6002 0.321733,-0.67734 0.8636,-1.0414 0.541867,-0.37254 1.193801,-0.37254 0.668867,0 1.210734,0.37254 0.541866,0.36406 0.855133,1.0414 0.321734,0.67733 0.321734,1.60867 0,0.92286 -0.321734,1.60866 -0.313267,0.67734 -0.855133,1.04987 -0.533401,0.36407 -1.185334,0.36407 z m -0.01693,-0.75354 q 0.465667,0 0.812801,-0.254 0.3556,-0.26246 0.5588,-0.77046 0.2032,-0.508 0.2032,-1.25307 0,-0.74507 -0.2032,-1.2446 -0.2032,-0.508 -0.5588,-0.762 -0.3556,-0.26247 -0.821267,-0.26247 -0.4572,0 -0.812801,0.26247 -0.3556,0.254 -0.5588,0.762 -0.194733,0.49953 -0.194733,1.2446 0,0.74507 0.194733,1.25307 0.2032,0.508 0.5588,0.77046 0.355601,0.254 0.821267,0.254 z m 5.571072,0.75354 q -0.6604,0 -1.210734,-0.37254 -0.541867,-0.37253 -0.8636,-1.04986 -0.321734,-0.6858 -0.321734,-1.60867 0,-0.92287 0.313267,-1.6002 0.321734,-0.67734 0.8636,-1.0414 0.541867,-0.37254 1.193801,-0.37254 0.668867,0 1.210734,0.37254 0.541867,0.36406 0.855133,1.0414 0.321734,0.67733 0.321734,1.60867 0,0.92286 -0.321734,1.60866 -0.313266,0.67734 -0.855133,1.04987 -0.533401,0.36407 -1.185334,0.36407 z m -0.01693,-0.75354 q 0.465666,0 0.8128,-0.254 0.3556,-0.26246 0.5588,-0.77046 0.2032,-0.508 0.2032,-1.25307 0,-0.74507 -0.2032,-1.2446 -0.2032,-0.508 -0.5588,-0.762 -0.3556,-0.26247 -0.821267,-0.26247 -0.4572,0 -0.8128,0.26247 -0.355601,0.254 -0.558801,0.762 -0.194733,0.49953 -0.194733,1.2446 0,0.74507 0.194733,1.25307 0.2032,0.508 0.558801,0.77046 0.3556,0.254 0.821267,0.254 z m 4.2418,0.66887 v -5.87587 h 0.7874 v 5.87587 z M 91.970068,132.547 v -0.7112 h 1.905001 v 0.7112 z m 5.469469,5.24934 q -0.6604,0 -1.210734,-0.37254 -0.541867,-0.37253 -0.8636,-1.04986 -0.321733,-0.6858 -0.321733,-1.60867 0,-0.92287 0.313266,-1.6002 0.321734,-0.67734 0.863601,-1.0414 0.541867,-0.37254 1.1938,-0.37254 0.668867,0 1.210734,0.37254 0.541867,0.36406 0.855134,1.0414 0.321733,0.67733 0.321733,1.60867 0,0.92286 -0.321733,1.60866 -0.313267,0.67734 -0.855134,1.04987 -0.5334,0.36407 -1.185334,0.36407 z m -0.01693,-0.75354 q 0.465667,0 0.8128,-0.254 0.3556,-0.26246 0.5588,-0.77046 0.2032,-0.508 0.2032,-1.25307 0,-0.74507 -0.2032,-1.2446 -0.2032,-0.508 -0.5588,-0.762 -0.3556,-0.26247 -0.821267,-0.26247 -0.4572,0 -0.8128,0.26247 -0.3556,0.254 -0.5588,0.762 -0.194734,0.49953 -0.194734,1.2446 0,0.74507 0.194734,1.25307 0.2032,0.508 0.5588,0.77046 0.3556,0.254 0.821267,0.254 z m 4.241806,0.66887 v -5.87587 h 0.7874 v 5.87587 z m -1.20227,-5.16467 v -0.7112 h 1.905 v 0.7112 z m 4.1402,5.16467 v -5.87587 h 0.7874 v 5.87587 z m -1.20226,-5.16467 v -0.7112 h 1.905 v 0.7112 z m 5.46947,5.24934 q -0.66041,0 -1.21074,-0.37254 -0.54187,-0.37253 -0.8636,-1.04986 -0.32173,-0.6858 -0.32173,-1.60867 0,-0.92287 0.31326,-1.6002 0.32174,-0.67734 0.8636,-1.0414 0.54187,-0.37254 1.19381,-0.37254 0.66886,0 1.21073,0.37254 0.54187,0.36406 0.85513,1.0414 0.32174,0.67733 0.32174,1.60867 0,0.92286 -0.32174,1.60866 -0.31326,0.67734 -0.85513,1.04987 -0.5334,0.36407 -1.18533,0.36407 z m -0.0169,-0.75354 q 0.46567,0 0.8128,-0.254 0.3556,-0.26246 0.5588,-0.77046 0.2032,-0.508 0.2032,-1.25307 0,-0.74507 -0.2032,-1.2446 -0.2032,-0.508 -0.5588,-0.762 -0.3556,-0.26247 -0.82126,-0.26247 -0.45721,0 -0.81281,0.26247 -0.3556,0.254 -0.5588,0.762 -0.19473,0.49953 -0.19473,1.2446 0,0.74507 0.19473,1.25307 0.2032,0.508 0.5588,0.77046 0.3556,0.254 0.82127,0.254 z m 5.57107,0.75354 q -0.6604,0 -1.21073,-0.37254 -0.54187,-0.37253 -0.8636,-1.04986 -0.32173,-0.6858 -0.32173,-1.60867 0,-0.92287 0.31326,-1.6002 0.32174,-0.67734 0.8636,-1.0414 0.54187,-0.37254 1.1938,-0.37254 0.66887,0 1.21074,0.37254 0.54186,0.36406 0.85513,1.0414 0.32173,0.67733 0.32173,1.60867 0,0.92286 -0.32173,1.60866 -0.31327,0.67734 -0.85513,1.04987 -0.5334,0.36407 -1.18534,0.36407 z m -0.0169,-0.75354 q 0.46567,0 0.8128,-0.254 0.3556,-0.26246 0.5588,-0.77046 0.2032,-0.508 0.2032,-1.25307 0,-0.74507 -0.2032,-1.2446 -0.2032,-0.508 -0.5588,-0.762 -0.3556,-0.26247 -0.82127,-0.26247 -0.4572,0 -0.8128,0.26247 -0.3556,0.254 -0.5588,0.762 -0.19473,0.49953 -0.19473,1.2446 0,0.74507 0.19473,1.25307 0.2032,0.508 0.5588,0.77046 0.3556,0.254 0.82127,0.254 z m 5.57107,0.75354 q -0.6604,0 -1.21073,-0.37254 -0.54187,-0.37253 -0.8636,-1.04986 -0.32174,-0.6858 -0.32174,-1.60867 0,-0.92287 0.31327,-1.6002 0.32173,-0.67734 0.8636,-1.0414 0.54187,-0.37254 1.1938,-0.37254 0.66887,0 1.21074,0.37254 0.54186,0.36406 0.85513,1.0414 0.32173,0.67733 0.32173,1.60867 0,0.92286 -0.32173,1.60866 -0.31327,0.67734 -0.85513,1.04987 -0.5334,0.36407 -1.18534,0.36407 z m -0.0169,-0.75354 q 0.46566,0 0.8128,-0.254 0.3556,-0.26246 0.5588,-0.77046 0.2032,-0.508 0.2032,-1.25307 0,-0.74507 -0.2032,-1.2446 -0.2032,-0.508 -0.5588,-0.762 -0.3556,-0.26247 -0.82127,-0.26247 -0.4572,0 -0.8128,0.26247 -0.3556,0.254 -0.5588,0.762 -0.19473,0.49953 -0.19473,1.2446 0,0.74507 0.19473,1.25307 0.2032,0.508 0.5588,0.77046 0.3556,0.254 0.82127,0.254 z m 5.57107,0.75354 q -0.6604,0 -1.21073,-0.37254 -0.54187,-0.37253 -0.8636,-1.04986 -0.32174,-0.6858 -0.32174,-1.60867 0,-0.92287 0.31327,-1.6002 0.32173,-0.67734 0.8636,-1.0414 0.54187,-0.37254 1.1938,-0.37254 0.66887,0 1.21073,0.37254 0.54187,0.36406 0.85514,1.0414 0.32173,0.67733 0.32173,1.60867 0,0.92286 -0.32173,1.60866 -0.31327,0.67734 -0.85514,1.04987 -0.5334,0.36407 -1.18533,0.36407 z m -0.0169,-0.75354 q 0.46566,0 0.8128,-0.254 0.3556,-0.26246 0.5588,-0.77046 0.2032,-0.508 0.2032,-1.25307 0,-0.74507 -0.2032,-1.2446 -0.2032,-0.508 -0.5588,-0.762 -0.3556,-0.26247 -0.82127,-0.26247 -0.4572,0 -0.8128,0.26247 -0.3556,0.254 -0.5588,0.762 -0.19473,0.49953 -0.19473,1.2446 0,0.74507 0.19473,1.25307 0.2032,0.508 0.5588,0.77046 0.3556,0.254 0.82127,0.254 z m 4.24179,0.66887 v -5.87587 h 0.7874 v 5.87587 z m -1.20226,-5.16467 v -0.7112 h 1.905 v 0.7112 z m 5.46947,5.24934 q -0.6604,0 -1.21073,-0.37254 -0.54187,-0.37253 -0.8636,-1.04986 -0.32173,-0.6858 -0.32173,-1.60867 0,-0.92287 0.31326,-1.6002 0.32174,-0.67734 0.8636,-1.0414 0.54187,-0.37254 1.1938,-0.37254 0.66887,0 1.21074,0.37254 0.54186,0.36406 0.85513,1.0414 0.32173,0.67733 0.32173,1.60867 0,0.92286 -0.32173,1.60866 -0.31327,0.67734 -0.85513,1.04987 -0.5334,0.36407 -1.18534,0.36407 z m -0.0169,-0.75354 q 0.46567,0 0.8128,-0.254 0.3556,-0.26246 0.5588,-0.77046 0.2032,-0.508 0.2032,-1.25307 0,-0.74507 -0.2032,-1.2446 -0.2032,-0.508 -0.5588,-0.762 -0.3556,-0.26247 -0.82127,-0.26247 -0.4572,0 -0.8128,0.26247 -0.3556,0.254 -0.5588,0.762 -0.19473,0.49953 -0.19473,1.2446 0,0.74507 0.19473,1.25307 0.2032,0.508 0.5588,0.77046 0.3556,0.254 0.82127,0.254 z m 4.2418,0.66887 v -5.87587 h 0.7874 v 5.87587 z m -1.20227,-5.16467 v -0.7112 h 1.905 v 0.7112 z m 5.46947,5.24934 q -0.6604,0 -1.21074,-0.37254 -0.54186,-0.37253 -0.8636,-1.04986 -0.32173,-0.6858 -0.32173,-1.60867 0,-0.92287 0.31327,-1.6002 0.32173,-0.67734 0.8636,-1.0414 0.54186,-0.37254 1.1938,-0.37254 0.66887,0 1.21073,0.37254 0.54187,0.36406 0.85514,1.0414 0.32173,0.67733 0.32173,1.60867 0,0.92286 -0.32173,1.60866 -0.31327,0.67734 -0.85514,1.04987 -0.5334,0.36407 -1.18533,0.36407 z m -0.0169,-0.75354 q 0.46567,0 0.81281,-0.254 0.3556,-0.26246 0.5588,-0.77046 0.2032,-0.508 0.2032,-1.25307 0,-0.74507 -0.2032,-1.2446 -0.2032,-0.508 -0.5588,-0.762 -0.35561,-0.26247 -0.82127,-0.26247 -0.4572,0 -0.8128,0.26247 -0.3556,0.254 -0.5588,0.762 -0.19474,0.49953 -0.19474,1.2446 0,0.74507 0.19474,1.25307 0.2032,0.508 0.5588,0.77046 0.3556,0.254 0.82126,0.254 z m 5.57108,0.75354 q -0.6604,0 -1.21074,-0.37254 -0.54186,-0.37253 -0.8636,-1.04986 -0.32173,-0.6858 -0.32173,-1.60867 0,-0.92287 0.31327,-1.6002 0.32173,-0.67734 0.8636,-1.0414 0.54186,-0.37254 1.1938,-0.37254 0.66886,0 1.21073,0.37254 0.54187,0.36406 0.85513,1.0414 0.32174,0.67733 0.32174,1.60867 0,0.92286 -0.32174,1.60866 -0.31326,0.67734 -0.85513,1.04987 -0.5334,0.36407 -1.18533,0.36407 z m -0.0169,-0.75354 q 0.46567,0 0.8128,-0.254 0.3556,-0.26246 0.5588,-0.77046 0.2032,-0.508 0.2032,-1.25307 0,-0.74507 -0.2032,-1.2446 -0.2032,-0.508 -0.5588,-0.762 -0.3556,-0.26247 -0.82126,-0.26247 -0.4572,0 -0.8128,0.26247 -0.3556,0.254 -0.5588,0.762 -0.19474,0.49953 -0.19474,1.2446 0,0.74507 0.19474,1.25307 0.2032,0.508 0.5588,0.77046 0.3556,0.254 0.82126,0.254 z m 5.57107,0.75354 q -0.6604,0 -1.21073,-0.37254 -0.54187,-0.37253 -0.8636,-1.04986 -0.32173,-0.6858 -0.32173,-1.60867 0,-0.92287 0.31326,-1.6002 0.32174,-0.67734 0.8636,-1.0414 0.54187,-0.37254 1.1938,-0.37254 0.66887,0 1.21074,0.37254 0.54187,0.36406 0.85513,1.0414 0.32174,0.67733 0.32174,1.60867 0,0.92286 -0.32174,1.60866 -0.31326,0.67734 -0.85513,1.04987 -0.5334,0.36407 -1.18534,0.36407 z m -0.0169,-0.75354 q 0.46567,0 0.8128,-0.254 0.3556,-0.26246 0.5588,-0.77046 0.2032,-0.508 0.2032,-1.25307 0,-0.74507 -0.2032,-1.2446 -0.2032,-0.508 -0.5588,-0.762 -0.3556,-0.26247 -0.82127,-0.26247 -0.4572,0 -0.8128,0.26247 -0.3556,0.254 -0.5588,0.762 -0.19473,0.49953 -0.19473,1.2446 0,0.74507 0.19473,1.25307 0.2032,0.508 0.5588,0.77046 0.3556,0.254 0.82127,0.254 z m 4.24181,0.66887 v -5.87587 h 0.7874 v 5.87587 z m -1.20227,-5.16467 v -0.7112 h 1.905 v 0.7112 z m 5.46946,5.24934 q -0.6604,0 -1.21073,-0.37254 -0.54187,-0.37253 -0.8636,-1.04986 -0.32174,-0.6858 -0.32174,-1.60867 0,-0.92287 0.31327,-1.6002 0.32173,-0.67734 0.8636,-1.0414 0.54187,-0.37254 1.1938,-0.37254 0.66887,0 1.21073,0.37254 0.54187,0.36406 0.85514,1.0414 0.32173,0.67733 0.32173,1.60867 0,0.92286 -0.32173,1.60866 -0.31327,0.67734 -0.85514,1.04987 -0.5334,0.36407 -1.18533,0.36407 z m -0.0169,-0.75354 q 0.46566,0 0.8128,-0.254 0.3556,-0.26246 0.5588,-0.77046 0.2032,-0.508 0.2032,-1.25307 0,-0.74507 -0.2032,-1.2446 -0.2032,-0.508 -0.5588,-0.762 -0.3556,-0.26247 -0.82127,-0.26247 -0.4572,0 -0.8128,0.26247 -0.3556,0.254 -0.5588,0.762 -0.19473,0.49953 -0.19473,1.2446 0,0.74507 0.19473,1.25307 0.2032,0.508 0.5588,0.77046 0.3556,0.254 0.82127,0.254 z m 5.57107,0.75354 q -0.6604,0 -1.21074,-0.37254 -0.54186,-0.37253 -0.8636,-1.04986 -0.32173,-0.6858 -0.32173,-1.60867 0,-0.92287 0.31327,-1.6002 0.32173,-0.67734 0.8636,-1.0414 0.54186,-0.37254 1.1938,-0.37254 0.66887,0 1.21073,0.37254 0.54187,0.36406 0.85514,1.0414 0.32173,0.67733 0.32173,1.60867 0,0.92286 -0.32173,1.60866 -0.31327,0.67734 -0.85514,1.04987 -0.5334,0.36407 -1.18533,0.36407 z m -0.0169,-0.75354 q 0.46567,0 0.81281,-0.254 0.3556,-0.26246 0.5588,-0.77046 0.2032,-0.508 0.2032,-1.25307 0,-0.74507 -0.2032,-1.2446 -0.2032,-0.508 -0.5588,-0.762 -0.35561,-0.26247 -0.82127,-0.26247 -0.4572,0 -0.8128,0.26247 -0.3556,0.254 -0.5588,0.762 -0.19474,0.49953 -0.19474,1.2446 0,0.74507 0.19474,1.25307 0.2032,0.508 0.5588,0.77046 0.3556,0.254 0.82126,0.254 z m 4.24181,0.66887 v -5.87587 h 0.7874 v 5.87587 z m -1.20227,-5.16467 v -0.7112 h 1.905 v 0.7112 z m 4.14021,5.16467 v -5.87587 h 0.7874 v 5.87587 z m -1.20227,-5.16467 v -0.7112 h 1.90501 v 0.7112 z"
       id="text6"
       style="font-size:8.46667px;font-family:Outfit;-inkscape-font-specification:'Outfit, Normal';text-align:center;text-anchor:middle;fill:#ffffff"
       aria-label="00000001010001011000010100010011" />
    <path
       d="m 90.156332,123.37523 q -0.381,0 -0.691445,-0.15522 -0.303389,-0.16228 -0.486834,-0.4445 -0.183444,-0.28223 -0.204611,-0.64206 v -1.00895 q 0.02117,-0.36688 0.204611,-0.64205 0.1905,-0.28222 0.49389,-0.43745 0.310444,-0.16227 0.684389,-0.16227 0.458611,0 0.8255,0.23283 0.373945,0.23283 0.585612,0.62794 0.211667,0.39512 0.211667,0.889 0,0.49389 -0.211667,0.88901 -0.211667,0.39511 -0.585612,0.62794 -0.366889,0.22578 -0.8255,0.22578 z m -1.76389,-0.0706 V 118.267 h 0.635 v 2.50473 l -0.119944,0.81139 0.119944,0.81844 v 0.90311 z m 1.658056,-0.52916 q 0.317501,0 0.55739,-0.14817 0.239889,-0.14817 0.381,-0.40217 0.141111,-0.26105 0.141111,-0.59972 0,-0.33161 -0.141111,-0.59267 -0.141111,-0.26105 -0.381,-0.40217 -0.239889,-0.14816 -0.550334,-0.14816 -0.3175,0 -0.557389,0.14816 -0.239889,0.14112 -0.373945,0.40217 -0.134056,0.26106 -0.134056,0.59972 0,0.33162 0.127001,0.59267 0.134055,0.254 0.373944,0.40217 0.246945,0.14817 0.557389,0.14817 z m 4.000508,0.59972 q -0.500944,0 -0.903111,-0.22578 -0.402167,-0.23283 -0.635001,-0.62794 -0.232833,-0.39512 -0.232833,-0.89606 0,-0.49389 0.225778,-0.889 0.232833,-0.39511 0.620889,-0.62089 0.395111,-0.23283 0.881945,-0.23283 0.465667,0 0.818445,0.21166 0.359834,0.21167 0.557389,0.58561 0.204612,0.37395 0.204612,0.84667 0,0.0706 -0.0071,0.15522 -0.0071,0.0776 -0.02822,0.18345 h -2.82928 v -0.52917 h 2.490613 l -0.232834,0.20461 q 0,-0.33866 -0.119944,-0.5715 -0.119945,-0.23989 -0.338667,-0.36689 -0.218722,-0.13405 -0.529167,-0.13405 -0.324556,0 -0.5715,0.14111 -0.246945,0.14111 -0.381001,0.39511 -0.134055,0.254 -0.134055,0.59972 0,0.35278 0.141111,0.62089 0.141111,0.26106 0.402167,0.40922 0.261056,0.14112 0.599722,0.14112 0.282223,0 0.515056,-0.0988 0.239889,-0.0988 0.409223,-0.29634 l 0.409222,0.41628 q -0.239889,0.28222 -0.592667,0.43039 -0.345722,0.14817 -0.740834,0.14817 z m 3.760609,0 q -0.493889,0 -0.896056,-0.23284 -0.395111,-0.23283 -0.627945,-0.62794 -0.225778,-0.40217 -0.225778,-0.889 0,-0.49389 0.225778,-0.889 0.232834,-0.39511 0.627945,-0.62089 0.402167,-0.23283 0.896056,-0.23283 0.388056,0 0.719667,0.14816 0.331612,0.14111 0.571501,0.41628 l -0.423334,0.42333 q -0.155222,-0.18344 -0.381,-0.27516 -0.218723,-0.0988 -0.486834,-0.0988 -0.3175,0 -0.564445,0.14817 -0.246944,0.14111 -0.388055,0.39511 -0.141112,0.254 -0.141112,0.58561 0,0.33161 0.141112,0.58561 0.141111,0.254 0.388055,0.40217 0.246945,0.14816 0.564445,0.14816 0.268111,0 0.486834,-0.0917 0.225778,-0.0988 0.388056,-0.28222 l 0.416278,0.42333 q -0.232834,0.26811 -0.571501,0.41628 -0.331611,0.14817 -0.719667,0.14817 z m 3.383155,0 q -0.49389,0 -0.889,-0.23284 -0.395114,-0.23283 -0.627947,-0.62794 -0.232834,-0.40217 -0.232834,-0.89606 0,-0.48683 0.232834,-0.87489 0.232833,-0.39511 0.627947,-0.62794 0.39511,-0.23283 0.889,-0.23283 0.48683,0 0.88194,0.23283 0.40217,0.22578 0.635,0.62089 0.23284,0.39511 0.23284,0.88194 0,0.49389 -0.23284,0.89606 -0.23283,0.39511 -0.635,0.62794 -0.39511,0.23284 -0.88194,0.23284 z m 0,-0.61384 q 0.3175,0 0.56444,-0.14816 0.24695,-0.14817 0.38806,-0.40217 0.14111,-0.26106 0.14111,-0.59267 0,-0.32455 -0.14817,-0.57855 -0.14111,-0.254 -0.38805,-0.39511 -0.23989,-0.14817 -0.55739,-0.14817 -0.3175,0 -0.56445,0.14817 -0.24694,0.14111 -0.38805,0.39511 -0.14111,0.254 -0.14111,0.57855 0,0.33161 0.14111,0.59267 0.14111,0.254 0.38805,0.40217 0.24695,0.14816 0.56445,0.14816 z m 2.46239,0.54328 v -3.35139 h 0.635 v 3.35139 z m 2.26483,0 v -2.02494 q 0,-0.37395 -0.23283,-0.58562 -0.22578,-0.21872 -0.5715,-0.21872 -0.23283,0 -0.41628,0.0988 -0.18344,0.0988 -0.29633,0.27517 -0.11289,0.17639 -0.11289,0.42333 l -0.26106,-0.127 q 0,-0.381 0.16228,-0.66322 0.16933,-0.28222 0.45861,-0.43745 0.28928,-0.16227 0.64911,-0.16227 0.35278,0 0.635,0.15522 0.28928,0.15522 0.45156,0.43744 0.16933,0.28223 0.16933,0.67028 v 2.159 z m 2.26484,0 v -2.02494 q 0,-0.37395 -0.23283,-0.58562 -0.22578,-0.21872 -0.56445,-0.21872 -0.23283,0 -0.42333,0.0988 -0.18345,0.0988 -0.29634,0.27517 -0.11289,0.17639 -0.11289,0.42333 l -0.35983,-0.127 q 0.0212,-0.38805 0.20461,-0.66322 0.1905,-0.28222 0.48684,-0.43745 0.29633,-0.16227 0.64911,-0.16227 0.36689,0 0.65616,0.15522 0.28928,0.15522 0.45862,0.43744 0.17638,0.28223 0.17638,0.67734 v 2.15194 z m 3.05505,0.0706 q -0.50094,0 -0.90311,-0.22578 -0.40217,-0.23283 -0.635,-0.62794 -0.23283,-0.39512 -0.23283,-0.89606 0,-0.49389 0.22578,-0.889 0.23283,-0.39511 0.62089,-0.62089 0.39511,-0.23283 0.88194,-0.23283 0.46567,0 0.81844,0.21166 0.35984,0.21167 0.55739,0.58561 0.20462,0.37395 0.20462,0.84667 0,0.0706 -0.007,0.15522 -0.007,0.0776 -0.0282,0.18345 h -2.82928 v -0.52917 h 2.49061 l -0.23283,0.20461 q 0,-0.33866 -0.11995,-0.5715 -0.11994,-0.23989 -0.33866,-0.36689 -0.21873,-0.13405 -0.52917,-0.13405 -0.32456,0 -0.5715,0.14111 -0.24695,0.14111 -0.381,0.39511 -0.13406,0.254 -0.13406,0.59972 0,0.35278 0.14111,0.62089 0.14112,0.26106 0.40217,0.40922 0.26106,0.14112 0.59972,0.14112 0.28223,0 0.51506,-0.0988 0.23989,-0.0988 0.40922,-0.29634 l 0.40922,0.41628 q -0.23988,0.28222 -0.59266,0.43039 -0.34573,0.14817 -0.74084,0.14817 z m 3.29494,0 q -0.28222,0 -0.53622,-0.0706 -0.24694,-0.0776 -0.45861,-0.21166 -0.21167,-0.14112 -0.36689,-0.33162 l 0.40922,-0.40922 q 0.18345,0.22578 0.42334,0.33867 0.23989,0.10583 0.53622,0.10583 0.29633,0 0.45861,-0.0988 0.16228,-0.10583 0.16228,-0.28927 0,-0.18345 -0.13406,-0.28223 -0.127,-0.10583 -0.33161,-0.16933 -0.20461,-0.0706 -0.43744,-0.13406 -0.22578,-0.0705 -0.43039,-0.17638 -0.20461,-0.10584 -0.33867,-0.28928 -0.127,-0.18345 -0.127,-0.48684 0,-0.30339 0.14817,-0.52211 0.14816,-0.22578 0.40922,-0.34572 0.26811,-0.11994 0.64206,-0.11994 0.39511,0 0.6985,0.14111 0.31044,0.13405 0.508,0.40922 l -0.40923,0.40922 q -0.14111,-0.18344 -0.35277,-0.28222 -0.20461,-0.0988 -0.46567,-0.0988 -0.27517,0 -0.42333,0.0988 -0.14111,0.0917 -0.14111,0.26106 0,0.16933 0.127,0.26105 0.127,0.0917 0.33161,0.15522 0.21166,0.0635 0.43744,0.13406 0.22578,0.0635 0.43039,0.17639 0.20461,0.11289 0.33161,0.30339 0.13406,0.1905 0.13406,0.50094 0,0.47272 -0.33867,0.74789 -0.33161,0.27517 -0.89606,0.27517 z"
       id="text7"
       style="font-size:7.05556px;font-family:Outfit;-inkscape-font-specification:'Outfit, @wght=400';font-variation-settings:'wght' 400;text-align:center;text-anchor:middle;fill:#ffffff"
       aria-label="becomes" />
    <path
       style="font-size:4.23333px;font-family:Sans;-inkscape-font-specification:'Sans, @wght=400';font-variation-settings:'wght' 400;text-align:center;text-anchor:middle;fill:#ffffff"
       d="m 89.879219,110.04309 v -1.25264 h 0.380338 v 3.21634 h -0.380338 v -0.34727 q -0.119889,0.20671 -0.303857,0.308 -0.181901,0.0992 -0.438216,0.0992 -0.419612,0 -0.684196,-0.33486 -0.262516,-0.33486 -0.262516,-0.88056 0,-0.54571 0.262516,-0.88057 0.264584,-0.33486 0.684196,-0.33486 0.256315,0 0.438216,0.10128 0.183968,0.0992 0.303857,0.30593 z m -1.296044,0.80822 q 0,0.41961 0.171566,0.65939 0.173632,0.23771 0.475422,0.23771 0.30179,0 0.475423,-0.23771 0.173633,-0.23978 0.173633,-0.65939 0,-0.41962 -0.173633,-0.65733 -0.173633,-0.23978 -0.475423,-0.23978 -0.30179,0 -0.475422,0.23978 -0.171566,0.23771 -0.171566,0.65733 z m 4.440035,-0.0972 v 0.18604 h -1.748729 q 0.02481,0.39274 0.235645,0.59945 0.212906,0.20463 0.591177,0.20463 0.219108,0 0.423747,-0.0537 0.206705,-0.0537 0.409277,-0.16123 v 0.35967 q -0.204639,0.0868 -0.419612,0.13229 -0.214974,0.0455 -0.436149,0.0455 -0.553971,0 -0.878499,-0.32246 -0.32246,-0.32246 -0.32246,-0.87229 0,-0.56844 0.305924,-0.90124 0.307991,-0.33486 0.828889,-0.33486 0.467155,0 0.737939,0.30179 0.272851,0.29972 0.272851,0.81648 z m -0.380338,-0.11162 q -0.0041,-0.31212 -0.1757,-0.49816 -0.169498,-0.18603 -0.450618,-0.18603 -0.318326,0 -0.510563,0.17983 -0.190169,0.17984 -0.219107,0.50643 z m 2.480467,-0.88263 v 0.35967 q -0.161231,-0.0827 -0.334863,-0.12402 -0.173633,-0.0413 -0.359668,-0.0413 -0.283187,0 -0.425813,0.0868 -0.14056,0.0868 -0.14056,0.26045 0,0.13229 0.101286,0.20877 0.101285,0.0744 0.407209,0.14263 l 0.130225,0.0289 q 0.405143,0.0868 0.574641,0.24598 0.171566,0.15709 0.171566,0.44028 0,0.32246 -0.256315,0.51056 -0.254248,0.1881 -0.700732,0.1881 -0.186035,0 -0.388606,-0.0372 -0.200505,-0.0351 -0.423747,-0.10749 v -0.39274 q 0.21084,0.10955 0.415479,0.16536 0.204638,0.0538 0.405143,0.0538 0.268717,0 0.413411,-0.091 0.144694,-0.093 0.144694,-0.26045 0,-0.15503 -0.10542,-0.23771 -0.103353,-0.0827 -0.45682,-0.15917 l -0.132291,-0.031 q -0.353467,-0.0744 -0.510563,-0.22738 -0.157096,-0.15503 -0.157096,-0.42374 0,-0.3266 0.23151,-0.50437 0.23151,-0.17776 0.657324,-0.17776 0.210839,0 0.396874,0.031 0.186035,0.031 0.343132,0.093 z m 1.105874,-0.72554 v 0.65733 h 0.783414 v 0.29559 h -0.783414 v 1.25677 q 0,0.28318 0.07648,0.3638 0.07855,0.0806 0.31626,0.0806 h 0.390673 v 0.31833 h -0.390673 q -0.440283,0 -0.607714,-0.1633 -0.167432,-0.16536 -0.167432,-0.59944 v -1.25677 h -0.279052 v -0.29559 h 0.279052 v -0.65733 z"
       id="text8"
       aria-label="dest" />
    <path
       style="font-size:4.23333px;font-family:Sans;-inkscape-font-specification:'Sans, @wght=400';font-variation-settings:'wght' 400;text-align:center;text-anchor:middle;fill:#ffffff"
       d="m 111.72839,109.33719 v 0.35967 q -0.16123,-0.0827 -0.33486,-0.12402 -0.17364,-0.0413 -0.35967,-0.0413 -0.28319,0 -0.42582,0.0868 -0.14056,0.0868 -0.14056,0.26045 0,0.13229 0.10129,0.20878 0.10129,0.0744 0.40721,0.14262 l 0.13022,0.0289 q 0.40515,0.0868 0.57465,0.24598 0.17156,0.1571 0.17156,0.44028 0,0.32246 -0.25631,0.51057 -0.25425,0.1881 -0.70073,0.1881 -0.18604,0 -0.38861,-0.0372 -0.20051,-0.0351 -0.42375,-0.10749 v -0.39274 q 0.21084,0.10956 0.41548,0.16537 0.20464,0.0537 0.40514,0.0537 0.26872,0 0.41341,-0.0909 0.1447,-0.093 0.1447,-0.26045 0,-0.15503 -0.10542,-0.23771 -0.10335,-0.0827 -0.45682,-0.15916 l -0.13229,-0.031 q -0.35347,-0.0744 -0.51057,-0.22737 -0.15709,-0.15503 -0.15709,-0.42375 0,-0.3266 0.23151,-0.50436 0.23151,-0.17777 0.65732,-0.17777 0.21084,0 0.39688,0.031 0.18603,0.031 0.34313,0.093 z m 2.07119,0.28732 q -0.0641,-0.0372 -0.14056,-0.0537 -0.0744,-0.0186 -0.16537,-0.0186 -0.32246,0 -0.49609,0.21084 -0.17157,0.20877 -0.17157,0.60151 v 1.21956 h -0.3824 v -2.3151 h 0.3824 v 0.35967 q 0.11989,-0.21084 0.31213,-0.31213 0.19224,-0.10335 0.46715,-0.10335 0.0393,0 0.0868,0.006 0.0475,0.004 0.10542,0.0145 z m 1.97197,-0.26665 v 0.35554 q -0.16123,-0.0889 -0.32453,-0.13229 -0.16123,-0.0455 -0.32659,-0.0455 -0.37001,0 -0.57464,0.23565 -0.20464,0.23357 -0.20464,0.65732 0,0.42375 0.20464,0.65939 0.20463,0.23358 0.57464,0.23358 0.16536,0 0.32659,-0.0434 0.1633,-0.0455 0.32453,-0.13436 v 0.3514 q -0.15916,0.0744 -0.33073,0.11162 -0.1695,0.0372 -0.36173,0.0372 -0.52297,0 -0.83096,-0.32866 -0.30799,-0.32867 -0.30799,-0.88677 0,-0.56637 0.31006,-0.8909 0.31212,-0.32453 0.85369,-0.32453 0.1757,0 0.34313,0.0372 0.16743,0.0351 0.32453,0.10748 z"
       id="text8-0"
       aria-label="src" />
    <path
       d="m 154.16052,141.62019 q -0.30592,0 -0.48369,0.23978 -0.17777,0.23771 -0.17777,0.65319 0,0.41547 0.1757,0.65525 0.17777,0.23771 0.48576,0.23771 0.30386,0 0.48162,-0.23977 0.17777,-0.23978 0.17777,-0.65319 0,-0.41135 -0.17777,-0.65113 -0.17776,-0.24184 -0.48162,-0.24184 z m 0,-0.32246 q 0.49609,0 0.77928,0.32246 0.28319,0.32246 0.28319,0.89297 0,0.56844 -0.28319,0.89296 -0.28319,0.32246 -0.77928,0.32246 -0.49816,0 -0.78135,-0.32246 -0.28112,-0.32452 -0.28112,-0.89296 0,-0.57051 0.28112,-0.89297 0.28319,-0.32246 0.78135,-0.32246 z m 2.06085,2.02364 v 1.22784 h -0.3824 v -3.19567 h 0.3824 v 0.3514 q 0.11989,-0.20671 0.30179,-0.30593 0.18397,-0.10128 0.43822,-0.10128 0.42168,0 0.6842,0.33486 0.26458,0.33486 0.26458,0.88057 0,0.5457 -0.26458,0.88056 -0.26252,0.33486 -0.6842,0.33486 -0.25425,0 -0.43822,-0.0992 -0.1819,-0.10129 -0.30179,-0.308 z m 1.29398,-0.80821 q 0,-0.41962 -0.17363,-0.65733 -0.17157,-0.23978 -0.47336,-0.23978 -0.30179,0 -0.47542,0.23978 -0.17157,0.23771 -0.17157,0.65733 0,0.41961 0.17157,0.65939 0.17363,0.23771 0.47542,0.23771 0.30179,0 0.47336,-0.23771 0.17363,-0.23978 0.17363,-0.65939 z m 2.69131,-1.07074 v 0.35553 q -0.16123,-0.0889 -0.32453,-0.13229 -0.16123,-0.0455 -0.3266,-0.0455 -0.37,0 -0.57464,0.23564 -0.20463,0.23358 -0.20463,0.65733 0,0.42374 0.20463,0.65939 0.20464,0.23357 0.57464,0.23357 0.16537,0 0.3266,-0.0434 0.1633,-0.0455 0.32453,-0.13436 v 0.3514 q -0.15917,0.0744 -0.33073,0.11162 -0.1695,0.0372 -0.36174,0.0372 -0.52296,0 -0.83095,-0.32866 -0.30799,-0.32866 -0.30799,-0.88676 0,-0.56638 0.31005,-0.8909 0.31213,-0.32453 0.8537,-0.32453 0.1757,0 0.34313,0.0372 0.16743,0.0351 0.32453,0.10749 z m 1.55856,0.17777 q -0.30593,0 -0.48369,0.23978 -0.17777,0.23771 -0.17777,0.65319 0,0.41547 0.1757,0.65525 0.17777,0.23771 0.48576,0.23771 0.30385,0 0.48162,-0.23977 0.17777,-0.23978 0.17777,-0.65319 0,-0.41135 -0.17777,-0.65113 -0.17777,-0.24184 -0.48162,-0.24184 z m 0,-0.32246 q 0.49609,0 0.77928,0.32246 0.28318,0.32246 0.28318,0.89297 0,0.56844 -0.28318,0.89296 -0.28319,0.32246 -0.77928,0.32246 -0.49816,0 -0.78135,-0.32246 -0.28112,-0.32452 -0.28112,-0.89296 0,-0.57051 0.28112,-0.89297 0.28319,-0.32246 0.78135,-0.32246 z m 3.21634,0.40721 v -1.25264 h 0.38033 v 3.21634 h -0.38033 v -0.34727 q -0.11989,0.20671 -0.30386,0.308 -0.1819,0.0992 -0.43822,0.0992 -0.41961,0 -0.68419,-0.33486 -0.26252,-0.33486 -0.26252,-0.88056 0,-0.54571 0.26252,-0.88057 0.26458,-0.33486 0.68419,-0.33486 0.25632,0 0.43822,0.10128 0.18397,0.0992 0.30386,0.30593 z m -1.29605,0.80822 q 0,0.41961 0.17157,0.65939 0.17363,0.23771 0.47542,0.23771 0.30179,0 0.47542,-0.23771 0.17364,-0.23978 0.17364,-0.65939 0,-0.41962 -0.17364,-0.65733 -0.17363,-0.23978 -0.47542,-0.23978 -0.30179,0 -0.47542,0.23978 -0.17157,0.23771 -0.17157,0.65733 z m 4.44004,-0.0972 v 0.18604 h -1.74873 q 0.0248,0.39274 0.23564,0.59945 0.21291,0.20463 0.59118,0.20463 0.21911,0 0.42375,-0.0537 0.2067,-0.0537 0.40927,-0.16123 v 0.35967 q -0.20463,0.0868 -0.41961,0.13229 -0.21497,0.0455 -0.43615,0.0455 -0.55397,0 -0.8785,-0.32246 -0.32246,-0.32246 -0.32246,-0.87229 0,-0.56844 0.30593,-0.90124 0.30799,-0.33486 0.82889,-0.33486 0.46715,0 0.73794,0.30179 0.27285,0.29972 0.27285,0.81648 z m -0.38034,-0.11162 q -0.004,-0.31212 -0.1757,-0.49816 -0.1695,-0.18603 -0.45062,-0.18603 -0.31833,0 -0.51056,0.17983 -0.19017,0.17984 -0.21911,0.50643 z"
       id="text9"
       style="font-size:4.23333px;font-family:Sans;-inkscape-font-specification:'Sans, @wght=400';font-variation-settings:'wght' 400;text-align:center;text-anchor:middle;fill:#ffffff"
       aria-label="opcode" />
    <path
       id="rect9"
       style="font-variation-settings:'wght' 400;fill:#ffffff"
       d="m 146.016,139.15517 h 29.1916 c 0.22891,0 0.4132,0.18429 0.4132,0.4132 0,0.22892 -0.18429,0.41321 -0.4132,0.41321 H 146.016 c -0.22891,0 -0.4132,-0.18429 -0.4132,-0.41321 0,-0.22891 0.18429,-0.4132 0.4132,-0.4132 z" />
    <path
       id="rect9-0"
       style="font-variation-settings:'wght' 400;fill:#ffffff;stroke-width:0.864864"
       d="m 123.1398,139.15517 h 21.62673 c 0.22892,0 0.41321,0.18429 0.41321,0.4132 0,0.22892 -0.18429,0.41321 -0.41321,0.41321 H 123.1398 c -0.22892,0 -0.41321,-0.18429 -0.41321,-0.41321 0,-0.22891 0.18429,-0.4132 0.41321,-0.4132 z" />
    <path
       id="rect9-0-9"
       style="font-variation-settings:'wght' 400;fill:#ffffff;stroke-width:0.734794"
       d="m 106.57545,139.15517 h 15.38096 c 0.22891,0 0.4132,0.18429 0.4132,0.4132 0,0.22892 -0.18429,0.41321 -0.4132,0.41321 h -15.38096 c -0.22892,0 -0.41321,-0.18429 -0.41321,-0.41321 0,-0.22891 0.18429,-0.4132 0.41321,-0.4132 z" />
    <path
       id="rect9-0-9-7"
       style="font-variation-settings:'wght' 400;fill:#ffffff;stroke-width:0.791691"
       d="m 86.854849,139.15517 h 17.988111 c 0.22892,0 0.41321,0.18429 0.41321,0.4132 0,0.22892 -0.18429,0.41321 -0.41321,0.41321 H 86.854849 c -0.228916,0 -0.413206,-0.18429 -0.413206,-0.41321 0,-0.22891 0.18429,-0.4132 0.413206,-0.4132 z" />
    <path
       style="font-variation-settings:'wght' 400;fill:none;stroke:#ffffff;stroke-width:0.6;stroke-linecap:round;stroke-dasharray:none;stroke-opacity:1"
       d="m 114.56593,144.93534 c 0.0661,10.17014 18.23804,10.26004 18.23804,10.26004"
       id="path9"
       sodipodi:nodetypes="cc" />
    <path
       style="font-variation-settings:'wght' 400;fill:none;stroke:#ffffff;stroke-width:0.600001;stroke-linecap:round;stroke-dasharray:none;stroke-opacity:1"
       d="m 160.3118,144.65756 c 0.004,10.76477 -16.75356,10.83782 -16.75356,10.83782"
       id="path10"
       sodipodi:nodetypes="cc" />
    <path
       style="font-size:4.23333px;font-family:Sans;-inkscape-font-specification:'Sans, Normal';text-align:center;text-anchor:middle;fill:#ffffff;stroke-width:0.6;stroke-linecap:round"
       d="m 135.13117,155.38537 q -0.46095,0 -0.63872,0.10542 -0.17776,0.10542 -0.17776,0.35966 0,0.20257 0.13229,0.32246 0.13436,0.11783 0.3638,0.11783 0.31626,0 0.50643,-0.22325 0.19223,-0.2253 0.19223,-0.59737 v -0.0848 z m 0.75861,-0.1571 v 1.32085 h -0.38034 v -0.3514 q -0.13022,0.21084 -0.32452,0.31212 -0.19431,0.0992 -0.47543,0.0992 -0.35553,0 -0.56637,-0.19843 -0.20877,-0.20051 -0.20877,-0.53537 0,-0.39068 0.26045,-0.58911 0.26251,-0.19844 0.78134,-0.19844 h 0.5333 v -0.0372 q 0,-0.26251 -0.17363,-0.40514 -0.17156,-0.14469 -0.48369,-0.14469 -0.19844,0 -0.38654,0.0475 -0.1881,0.0475 -0.36173,0.14263 v -0.3514 q 0.20877,-0.0806 0.40514,-0.11989 0.19637,-0.0413 0.3824,-0.0413 0.5023,0 0.75034,0.26044 0.24805,0.26045 0.24805,0.78962 z m 2.30684,-0.64285 v -1.25264 h 0.38033 v 3.21634 h -0.38033 v -0.34727 q -0.11989,0.20671 -0.30386,0.30799 -0.1819,0.0992 -0.43822,0.0992 -0.41961,0 -0.68419,-0.33486 -0.26252,-0.33486 -0.26252,-0.88057 0,-0.5457 0.26252,-0.88056 0.26458,-0.33486 0.68419,-0.33486 0.25632,0 0.43822,0.10128 0.18397,0.0992 0.30386,0.30593 z m -1.29605,0.80821 q 0,0.41962 0.17157,0.65939 0.17363,0.23772 0.47542,0.23772 0.30179,0 0.47542,-0.23772 0.17364,-0.23977 0.17364,-0.65939 0,-0.41961 -0.17364,-0.65732 -0.17363,-0.23978 -0.47542,-0.23978 -0.30179,0 -0.47542,0.23978 -0.17157,0.23771 -0.17157,0.65732 z m 3.98322,-0.80821 v -1.25264 h 0.38034 v 3.21634 h -0.38034 v -0.34727 q -0.11989,0.20671 -0.30386,0.30799 -0.1819,0.0992 -0.43821,0.0992 -0.41962,0 -0.6842,-0.33486 -0.26252,-0.33486 -0.26252,-0.88057 0,-0.5457 0.26252,-0.88056 0.26458,-0.33486 0.6842,-0.33486 0.25631,0 0.43821,0.10128 0.18397,0.0992 0.30386,0.30593 z m -1.29605,0.80821 q 0,0.41962 0.17157,0.65939 0.17363,0.23772 0.47542,0.23772 0.30179,0 0.47543,-0.23772 0.17363,-0.23977 0.17363,-0.65939 0,-0.41961 -0.17363,-0.65732 -0.17364,-0.23978 -0.47543,-0.23978 -0.30179,0 -0.47542,0.23978 -0.17157,0.23771 -0.17157,0.65732 z m 2.4598,-1.15961 h 0.38034 v 2.3151 h -0.38034 z m 0,-0.90124 h 0.38034 v 0.48162 h -0.38034 z"
       id="text10"
       aria-label="addi" />
  </g>
</svg>
